<?xml version="1.0" encoding="iso-8859-1"?>
<!-- Generator: Adobe Illustrator 19.0.0, SVG Export Plug-In . SVG Version: 6.00 Build 0)  -->
<svg version="1.1" id="Capa_1" xmlns="http://www.w3.org/2000/svg" xmlns:xlink="http://www.w3.org/1999/xlink" x="0px" y="0px"
	 viewBox="0 0 480 480" style="enable-background:new 0 0 480 480;" xml:space="preserve">
<path style="fill:#B7F9F6;" d="M8,8h464v368H8V8z"/>
<path style="fill:#DE2F55;" d="M104,136h33.936L216,96v192l-78.064-40H104V136z"/>
<path style="fill:#816892;" d="M8,376h464v96H8V376z"/>
<circle style="fill:#4AA5DD;" cx="368" cy="200" r="72"/>
<path style="fill:#E9CD4B;" d="M72,136h32v112H72V136z"/>
<g>
	<path style="fill:#816892;" d="M40,160h32v64H40V160z"/>
	<path style="fill:#816892;" d="M88,248h32v80H88V248z"/>
</g>
<g>
	<circle style="fill:#DE2F55;" cx="64" cy="424" r="16"/>
	<circle style="fill:#DE2F55;" cx="128" cy="424" r="16"/>
</g>
<g>
	<path style="fill:#00BA54;" d="M392,160c-8.837,0-16,7.163-16,16s7.163,16,16,16h4c6.627,0,12,5.373,12,12s-5.373,12-12,12h-20
		c-8.837,0-16,7.163-16,16c0,8.837,7.163,16,16,16h45.558c21.997-24.432,24.593-60.683,6.301-88H392z"/>
	<path style="fill:#00BA54;" d="M340,152h-25.558c-17.659,19.538-23.138,47.207-14.257,72h22.36c7.431,0,13.455-6.024,13.455-13.455
		c0,0,0,0,0,0V200h-8v-12c0-6.627,5.373-12,12-12s12-5.373,12-12S346.627,152,340,152z"/>
</g>
<path d="M240,192h32v16h-32V192z"/>
<path d="M238.057,152.242l31.999-8.004l3.883,15.523l-31.999,8.004L238.057,152.242z"/>
<path d="M238.059,247.744l3.881-15.524l32,8l-3.881,15.524L238.059,247.744z"/>
<path d="M64,448c-13.255,0-24-10.745-24-24s10.745-24,24-24s24,10.745,24,24C87.986,437.249,77.249,447.986,64,448z M64,416
	c-4.418,0-8,3.582-8,8s3.582,8,8,8s8-3.582,8-8C71.994,419.584,68.416,416.006,64,416z"/>
<path d="M128,448c-13.255,0-24-10.745-24-24s10.745-24,24-24s24,10.745,24,24C151.986,437.249,141.249,447.986,128,448z M128,416
	c-4.418,0-8,3.582-8,8s3.582,8,8,8s8-3.582,8-8C135.994,419.584,132.416,416.006,128,416z"/>
<path d="M432,416h16v16h-16V416z"/>
<path d="M400,416h16v16h-16V416z"/>
<path d="M368,416h16v16h-16V416z"/>
<path d="M472,0H8C3.582,0,0,3.582,0,8v464c0,4.418,3.582,8,8,8h464c4.418,0,8-3.582,8-8V8C480,3.582,476.418,0,472,0z M464,16v352
	H16V16H464z M16,464v-80h448v80H16z"/>
<path d="M368,120c-44.183,0-80,35.817-80,80s35.817,80,80,80s80-35.817,80-80C447.951,155.838,412.162,120.049,368,120z M318.12,160
	H340c2.209,0,4,1.791,4,4s-1.791,4-4,4c-11.04,0.013-19.987,8.96-20,20v12c0,4.418,3.582,8,8,8v2.559
	c-0.004,3.004-2.438,5.438-5.441,5.441h-16.452C300.938,196.486,305.402,175.677,318.12,160z M312.66,232h9.899
	c11.836-0.013,21.429-9.605,21.441-21.441V200c0-4.418-3.582-8-8-8v-4c0.001-2.209,1.791-3.999,4-4c11.046,0,20-8.954,20-20
	s-8.954-20-20-20h-2.915c23.601-13.099,52.896-9.893,73.105,8H392c-13.249,0.014-23.986,10.751-24,24
	c0.062,13.229,10.771,23.938,24,24h4c2.209,0,4,1.791,4,4s-1.791,4-4,4h-20c-13.249,0.014-23.986,10.751-24,24
	c0.062,13.229,10.771,23.938,24,24h22.915C368.433,272.895,330.035,262.21,312.66,232L312.66,232z M417.881,240H376
	c-2.155,0.006-4.216-0.879-5.695-2.445c-1.492-1.461-2.324-3.467-2.305-5.555c0.006-4.416,3.584-7.994,8-8h20
	c11.046,0,20-8.954,20-20s-8.954-20-20-20h-4c-2.155,0.006-4.216-0.879-5.695-2.445c-1.492-1.461-2.324-3.467-2.305-5.555
	c0.006-4.416,3.584-7.994,8-8h31.34C436.64,190.807,434.467,219.459,417.881,240L417.881,240z"/>
<path d="M220.172,89.176c-2.378-1.45-5.339-1.562-7.82-0.297L136.004,128H72c-4.418,0-8,3.582-8,8v16H40c-4.418,0-8,3.582-8,8v64
	c0,4.418,3.582,8,8,8h24v16c0,4.418,3.582,8,8,8h8v72c0,4.418,3.582,8,8,8h32c4.418,0,8-3.582,8-8v-72h8.004l76.348,39.121
	c3.935,2.013,8.757,0.455,10.77-3.48c0.577-1.127,0.878-2.375,0.878-3.641V96C224,93.214,222.55,90.628,220.172,89.176
	L220.172,89.176z M48,216v-48h16v48H48z M80,144h16v96H80V144z M112,320H96v-64h16V320z M208,274.91l-66.418-34.031
	c-1.129-0.578-2.38-0.879-3.648-0.879H112v-96h25.934c1.268,0,2.519-0.301,3.648-0.879L208,109.09V274.91z"/>
<g>
</g>
<g>
</g>
<g>
</g>
<g>
</g>
<g>
</g>
<g>
</g>
<g>
</g>
<g>
</g>
<g>
</g>
<g>
</g>
<g>
</g>
<g>
</g>
<g>
</g>
<g>
</g>
<g>
</g>
</svg>
