<svg xmlns="http://www.w3.org/2000/svg" height="769pt" version="1.1" viewBox="-141 0 769 769.11862" width="769pt">
<g id="surface1">
<path d="M 243.328125 183.910156 C 210.898438 184.679688 179.363281 173.261719 154.960938 151.886719 C 125.601562 170.65625 86.578125 162.0625 67.8125 132.703125 C 49.042969 103.339844 57.636719 64.320312 86.996094 45.550781 C 107.710938 32.3125 134.234375 32.3125 154.960938 45.550781 C 179.363281 24.175781 210.898438 12.757812 243.328125 13.53125 C 275.753906 12.761719 307.289062 24.175781 331.691406 45.550781 C 361.050781 26.921875 399.964844 35.621094 418.585938 64.996094 C 437.214844 94.355469 428.515625 133.269531 399.140625 151.886719 C 378.550781 164.953125 352.269531 164.953125 331.679688 151.886719 C 307.277344 173.25 275.753906 184.679688 243.328125 183.910156 Z M 243.328125 183.910156 " style=" stroke:none;fill-rule:nonzero;fill:rgb(100%,100%,100%);fill-opacity:1;" />
<path d="M 147.664062 140.539062 C 152.878906 137.253906 159.664062 137.917969 164.148438 142.160156 C 186.078125 161.144531 214.332031 171.222656 243.328125 170.398438 C 272.335938 171.183594 300.589844 161.0625 322.503906 142.023438 C 326.992188 137.78125 333.773438 137.121094 338.988281 140.402344 C 362.054688 155.183594 392.726562 148.46875 407.492188 125.40625 C 422.273438 102.339844 415.558594 71.667969 392.496094 56.902344 C 376.1875 46.457031 355.296875 46.457031 338.988281 56.902344 C 333.773438 60.183594 326.992188 59.523438 322.503906 55.28125 C 300.574219 36.296875 272.324219 26.214844 243.328125 27.039062 C 214.316406 26.257812 186.066406 36.375 164.148438 55.414062 C 159.664062 59.65625 152.882812 60.320312 147.664062 57.035156 C 124.601562 42.253906 93.929688 48.96875 79.160156 72.035156 C 64.394531 95.097656 71.09375 125.769531 94.160156 140.539062 C 110.464844 150.996094 131.355469 150.996094 147.664062 140.539062 Z M 147.664062 140.539062 " style=" stroke:none;fill-rule:nonzero;fill:rgb(100%,100%,100%);fill-opacity:1;" />
<path d="M 243.328125 489.8125 C 199.007812 489.8125 158.070312 454.140625 136.585938 396.851562 L 134.152344 398.339844 L 128.476562 398.339844 C 124.953125 398.296875 121.480469 397.421875 118.34375 395.773438 C 105.722656 387.785156 96.820312 375.085938 93.617188 360.507812 C 86.324219 334.5625 92.941406 308.757812 108.347656 302.945312 C 110.292969 302.21875 112.34375 301.851562 114.425781 301.867188 C 116.925781 301.988281 119.398438 302.542969 121.722656 303.488281 C 121.722656 298.625 121.722656 293.894531 121.722656 289.164062 L 121.722656 272.679688 L 133.746094 271.734375 C 157.390625 269.84375 203.0625 266.738281 242.515625 266.738281 C 281.96875 266.738281 327.503906 269.84375 351.285156 271.734375 L 363.308594 272.679688 L 364.929688 289.976562 C 364.929688 294.570312 364.929688 299.164062 364.929688 303.488281 C 367.269531 302.636719 369.742188 302.175781 372.226562 302.136719 C 374.359375 302.191406 376.46875 302.652344 378.441406 303.488281 C 394.113281 309.296875 400.734375 335.105469 393.4375 361.046875 C 390.238281 375.625 381.332031 388.328125 368.714844 396.3125 C 365.578125 397.960938 362.105469 398.839844 358.578125 398.878906 L 352.90625 398.878906 L 350.609375 397.394531 C 328.585938 454.277344 287.644531 489.8125 243.328125 489.8125 Z M 243.328125 489.8125 " style=" stroke:none;fill-rule:nonzero;fill:rgb(100%,81.568627%,54.509804%);fill-opacity:1;" />
<path d="M 243.328125 476.300781 C 281.96875 476.300781 317.910156 444.007812 337.90625 392.125 C 340.503906 385.125 348.269531 381.542969 355.269531 384.136719 C 355.796875 384.339844 356.324219 384.570312 356.824219 384.828125 L 357.90625 384.828125 C 359.335938 385.136719 360.835938 385.042969 362.226562 384.554688 C 371.457031 378.207031 377.859375 368.519531 380.0625 357.535156 C 386.007812 336.457031 380.0625 318.753906 373.714844 316.324219 C 372.402344 315.835938 370.972656 315.835938 369.660156 316.324219 C 362.675781 318.929688 354.890625 315.390625 352.269531 308.390625 C 351.691406 306.824219 351.394531 305.160156 351.417969 303.488281 C 351.417969 297.273438 351.417969 291.191406 351.417969 285.109375 C 327.234375 283.21875 281.835938 280.113281 243.328125 280.113281 C 204.820312 280.113281 159.421875 283.21875 135.234375 285.109375 C 135.234375 291.191406 135.234375 297.136719 135.234375 303.488281 C 135.207031 310.945312 129.128906 316.972656 121.667969 316.945312 C 120.167969 316.945312 118.683594 316.6875 117.265625 316.1875 C 115.953125 315.6875 114.523438 315.6875 113.210938 316.1875 C 106.726562 318.621094 100.917969 336.320312 106.859375 356.722656 C 109.0625 367.707031 115.46875 377.394531 124.695312 383.746094 C 126.15625 384.609375 127.871094 384.988281 129.5625 384.828125 L 130.640625 384.828125 C 137.261719 381.378906 145.421875 383.949219 148.867188 390.570312 C 149.125 391.066406 149.355469 391.59375 149.558594 392.121094 C 168.742188 444.007812 204.683594 476.300781 243.328125 476.300781 Z M 216.304688 409.554688 L 270.351562 409.554688 C 277.808594 409.554688 283.863281 415.605469 283.863281 423.066406 C 283.863281 430.523438 277.808594 436.578125 270.351562 436.578125 L 216.304688 436.578125 C 208.84375 436.578125 202.792969 430.523438 202.792969 423.066406 C 202.792969 415.605469 208.84375 409.554688 216.304688 409.554688 Z M 216.304688 409.554688 " style=" stroke:none;fill-rule:nonzero;fill:rgb(100%,81.568627%,54.509804%);fill-opacity:1;" />
<path d="M 239.136719 553.585938 C 208.722656 555.234375 180.160156 538.902344 166.175781 511.835938 L 164.824219 509 L 164.824219 452.117188 L 186.578125 469.003906 C 219.34375 496.675781 267.308594 496.675781 300.074219 469.003906 L 321.828125 452.117188 L 321.828125 509.136719 L 320.476562 511.972656 C 307.414062 537.292969 281.417969 553.304688 252.921875 553.589844 L 239.136719 553.589844 Z M 239.136719 553.585938 " style=" stroke:none;fill-rule:nonzero;fill:rgb(100%,81.568627%,54.509804%);fill-opacity:1;" />
<path d="M 178.335938 479.136719 L 178.335938 506.160156 C 190.984375 529.738281 216.75 543.195312 243.328125 540.074219 L 252.515625 540.074219 C 275.945312 539.925781 297.398438 526.902344 308.316406 506.160156 L 308.316406 479.136719 C 270.699219 510.59375 215.953125 510.59375 178.335938 479.136719 Z M 178.335938 479.136719 " style=" stroke:none;fill-rule:nonzero;fill:rgb(100%,81.568627%,54.509804%);fill-opacity:1;" />
<path d="M 354.796875 272.410156 C 330.339844 270.519531 283.1875 267.140625 243.328125 267.140625 C 203.464844 267.140625 156.042969 270.382812 131.855469 272.277344 L 117.261719 273.492188 L 117.261719 162.699219 L 129.019531 161.210938 C 135.382812 160.414062 141.570312 158.632812 147.394531 155.941406 L 154.960938 152.429688 L 161.445312 157.5625 C 184.917969 175.4375 213.695312 184.949219 243.191406 184.585938 C 272.6875 184.949219 301.46875 175.4375 324.9375 157.5625 L 331.421875 152.429688 L 338.992188 155.941406 C 344.8125 158.632812 351.003906 160.414062 357.367188 161.210938 L 369.121094 162.699219 L 369.121094 273.492188 Z M 354.796875 272.410156 " style=" stroke:none;fill-rule:nonzero;fill:rgb(100%,100%,100%);fill-opacity:1;" />
<path d="M 243.328125 197.421875 C 210.898438 197.988281 179.199219 187.773438 153.203125 168.371094 C 146.109375 171.667969 138.542969 173.859375 130.773438 174.859375 L 130.773438 258.902344 C 154.421875 257.007812 202.117188 253.632812 243.328125 253.632812 C 284.535156 253.632812 332.097656 257.007812 355.878906 258.902344 L 355.878906 174.589844 C 348.121094 173.683594 340.554688 171.589844 333.449219 168.375 C 307.453125 187.773438 275.753906 198.003906 243.328125 197.421875 Z M 243.328125 197.421875 " style=" stroke:none;fill-rule:nonzero;fill:rgb(100%,100%,100%);fill-opacity:1;" />
<path d="M 243.328125 755.449219 L 229.8125 755.449219 C 193.738281 755.449219 154.691406 753.421875 113.75 749.371094 L 101.589844 748.152344 L 86.457031 746.398438 C 57.8125 743.019531 35.652344 739.507812 24.980469 737.613281 L 13.628906 735.859375 L 13.628906 617.632812 C 27.140625 564.261719 76.730469 529.132812 158.339844 515.753906 L 166.714844 514.402344 L 171.582031 521.292969 C 186.847656 542.683594 211.9375 554.84375 238.191406 553.585938 L 340.070312 553.585938 L 340.070312 752.34375 L 327.367188 753.152344 C 302.777344 754.777344 278.996094 755.585938 256.703125 755.585938 Z M 243.328125 755.449219 " style=" stroke:none;fill-rule:nonzero;fill:rgb(100%,100%,100%);fill-opacity:1;" />
<path d="M 243.328125 567.097656 L 238.058594 567.097656 C 207.589844 568.21875 178.605469 553.953125 160.90625 529.132812 C 106.050781 538.046875 41.734375 561.425781 27.140625 620.875 L 27.140625 724.507812 C 39.300781 726.535156 60.785156 729.914062 87.941406 733.15625 L 87.941406 696.269531 C 87.941406 688.8125 93.996094 682.757812 101.457031 682.757812 C 108.914062 682.757812 114.96875 688.8125 114.96875 696.269531 L 114.96875 735.859375 C 157.515625 740.222656 200.277344 742.210938 243.054688 741.804688 C 271.835938 741.804688 300.210938 741.804688 326.828125 739.507812 L 326.828125 567.097656 Z M 197.65625 703.699219 C 190.199219 703.699219 184.144531 697.648438 184.144531 690.1875 C 184.144531 682.730469 190.199219 676.675781 197.65625 676.675781 C 205.117188 676.675781 211.167969 682.730469 211.167969 690.1875 C 211.167969 697.648438 205.117188 703.699219 197.65625 703.699219 Z M 197.65625 621.550781 C 190.199219 621.550781 184.144531 615.496094 184.144531 608.039062 C 184.144531 600.578125 190.199219 594.527344 197.65625 594.527344 C 205.117188 594.527344 211.167969 600.578125 211.167969 608.039062 C 211.167969 615.496094 205.117188 621.550781 197.65625 621.550781 Z M 288.859375 595.339844 C 296.320312 595.339844 302.371094 601.390625 302.371094 608.851562 C 302.371094 616.308594 296.320312 622.363281 288.859375 622.363281 C 281.402344 622.363281 275.347656 616.308594 275.347656 608.851562 C 275.347656 601.390625 281.402344 595.339844 288.859375 595.339844 Z M 288.859375 677.488281 C 296.320312 677.488281 302.371094 683.542969 302.371094 691 C 302.371094 698.457031 296.320312 704.511719 288.859375 704.511719 C 281.402344 704.511719 275.347656 698.460938 275.347656 691 C 275.347656 683.542969 281.402344 677.488281 288.859375 677.488281 Z M 288.859375 677.488281 " style=" stroke:none;fill-rule:nonzero;fill:rgb(100%,100%,100%);fill-opacity:1;" />
<path d="M 340.472656 553.585938 L 283.859375 553.585938 L 306.425781 530.617188 C 309.234375 527.726562 311.816406 524.605469 314.128906 521.296875 L 318.992188 514.40625 L 327.367188 515.753906 C 408.4375 529.265625 458.972656 564.261719 472.078125 617.632812 L 472.078125 735.859375 L 460.863281 737.75 C 447.351562 739.914062 426.273438 743.292969 399.25 746.535156 L 384.117188 748.289062 L 354.121094 751.128906 L 339.394531 752.480469 Z M 340.472656 553.585938 " style=" stroke:none;fill-rule:nonzero;fill:rgb(100%,100%,100%);fill-opacity:1;" />
<path d="M 325.746094 529.132812 C 323.03125 533.023438 320.003906 536.671875 316.695312 540.074219 L 340.472656 540.074219 C 347.933594 540.074219 353.988281 546.128906 353.988281 553.585938 L 353.988281 737.613281 L 371.550781 735.859375 L 371.550781 696.269531 C 371.550781 688.8125 377.605469 682.757812 385.0625 682.757812 C 392.523438 682.757812 398.574219 688.8125 398.574219 696.269531 L 398.574219 733.15625 C 425.597656 729.914062 447.351562 726.535156 459.511719 724.507812 L 459.511719 620.875 C 444.917969 561.421875 380.605469 538.046875 325.746094 529.132812 Z M 325.746094 529.132812 " style=" stroke:none;fill-rule:nonzero;fill:rgb(100%,100%,100%);fill-opacity:1;" />
<path d="M 216.304688 436.578125 L 270.351562 436.578125 C 277.808594 436.578125 283.863281 430.523438 283.863281 423.0625 C 283.863281 415.605469 277.808594 409.550781 270.351562 409.550781 L 216.304688 409.550781 C 208.84375 409.550781 202.792969 415.605469 202.792969 423.0625 C 202.792969 430.523438 208.84375 436.578125 216.304688 436.578125 Z M 216.304688 436.578125 " style=" stroke:none;fill-rule:nonzero;fill:rgb(0%,0%,0%);fill-opacity:1;" />
<path d="M 335.339844 503.460938 L 335.339844 452.113281 C 344.527344 439.929688 352.242188 426.671875 358.308594 412.660156 C 363.957031 412.605469 369.511719 411.230469 374.523438 408.609375 C 390.289062 398.757812 401.4375 382.976562 405.464844 364.832031 C 414.921875 331.1875 405.464844 299.433594 382.496094 290.921875 L 378.441406 289.976562 C 378.441406 287.949219 378.441406 286.058594 378.441406 284.164062 C 381.265625 281.613281 382.886719 277.976562 382.902344 274.167969 L 382.902344 173.234375 C 424.097656 163.914062 449.945312 122.972656 440.621094 81.777344 C 432.648438 46.511719 401.074219 21.664062 364.929688 22.175781 C 353.917969 22.175781 343.042969 24.566406 333.042969 29.203125 C 307.183594 9.839844 275.632812 -0.429688 243.328125 0.015625 C 210.871094 -0.484375 179.160156 9.839844 153.203125 29.335938 C 143.339844 24.714844 132.613281 22.269531 121.722656 22.175781 C 79.484375 22.136719 45.207031 56.335938 45.164062 98.570312 C 45.125 134.09375 69.566406 164.96875 104.15625 173.101562 L 104.15625 273.492188 C 104.171875 277.300781 105.792969 280.9375 108.617188 283.488281 C 108.617188 285.515625 108.617188 287.410156 108.617188 289.300781 C 107.007812 289.625 105.429688 290.082031 103.886719 290.652344 C 81.324219 299.027344 71.460938 331.183594 80.917969 364.558594 C 85.132812 382.773438 96.539062 398.515625 112.535156 408.203125 C 117.546875 410.808594 123.101562 412.199219 128.75 412.253906 C 134.652344 426.386719 142.234375 439.777344 151.3125 452.113281 L 151.3125 503.457031 C 66.054688 518.457031 13.628906 557.234375 0.117188 616.28125 C 0.0117188 617.265625 0.0117188 618.265625 0.117188 619.253906 L 0.117188 735.859375 C -0.00390625 742.425781 4.617188 748.125 11.0625 749.371094 C 11.0625 749.371094 47.949219 756.261719 100.644531 761.933594 L 101.726562 761.933594 C 148.746094 766.988281 196.035156 769.339844 243.328125 768.960938 L 256.839844 768.960938 C 286.023438 768.960938 314.535156 767.609375 341.015625 765.71875 C 386.308594 762.433594 431.410156 756.84375 476.132812 748.964844 C 482.210938 747.53125 486.523438 742.101562 486.535156 735.859375 L 486.535156 619.253906 C 486.644531 618.265625 486.644531 617.265625 486.535156 616.28125 C 473.023438 557.234375 420.597656 518.457031 335.339844 503.460938 Z M 71.730469 98.789062 C 71.59375 71.546875 93.578125 49.363281 120.816406 49.238281 C 130.328125 49.199219 139.652344 51.902344 147.664062 57.035156 C 152.878906 60.320312 159.664062 59.65625 164.148438 55.414062 C 186.066406 36.375 214.316406 26.257812 243.328125 27.039062 C 272.335938 26.253906 300.589844 36.375 322.503906 55.414062 C 326.992188 59.65625 333.773438 60.316406 338.988281 57.035156 C 362.054688 42.253906 392.726562 48.96875 407.492188 72.035156 C 422.273438 95.097656 415.558594 125.769531 392.496094 140.535156 C 376.1875 150.980469 355.296875 150.980469 338.988281 140.535156 C 333.773438 137.253906 326.992188 137.914062 322.503906 142.160156 C 300.574219 161.144531 272.324219 171.222656 243.328125 170.398438 C 214.316406 171.183594 186.066406 161.0625 164.148438 142.023438 C 159.664062 137.78125 152.882812 137.121094 147.664062 140.402344 C 124.734375 155.101562 94.226562 148.425781 79.527344 125.5 C 74.390625 117.484375 71.675781 108.164062 71.730469 98.648438 C 71.730469 98.652344 71.730469 98.789062 71.730469 98.789062 Z M 355.472656 174.722656 L 355.472656 258.898438 C 331.691406 257.007812 283.457031 253.628906 242.921875 253.628906 C 202.386719 253.628906 153.878906 257.007812 130.367188 258.898438 L 130.367188 174.585938 C 138.257812 173.722656 145.960938 171.613281 153.203125 168.371094 C 179.199219 187.777344 210.898438 197.988281 243.324219 197.421875 C 275.753906 197.988281 307.453125 187.773438 333.449219 168.371094 C 340.554688 171.589844 348.121094 173.683594 355.878906 174.585938 Z M 148.746094 392.125 C 146.152344 385.125 138.382812 381.542969 131.382812 384.136719 C 130.855469 384.339844 130.328125 384.570312 129.828125 384.828125 L 128.75 384.828125 C 127.316406 385.136719 125.816406 385.042969 124.425781 384.554688 C 115.195312 378.207031 108.792969 368.519531 106.589844 357.535156 C 100.644531 336.457031 106.589844 318.753906 112.941406 317 C 114.25 316.5 115.683594 316.5 116.992188 317 C 123.980469 319.621094 131.777344 316.09375 134.398438 309.109375 C 135.074219 307.3125 135.355469 305.390625 135.234375 303.488281 C 135.234375 297.273438 135.234375 291.191406 135.234375 285.109375 C 159.148438 283.21875 204.007812 280.113281 243.328125 280.113281 C 282.644531 280.113281 326.964844 283.21875 351.417969 285.109375 C 351.417969 291.191406 351.417969 297.136719 351.417969 303.488281 C 351.445312 310.945312 357.527344 316.972656 364.984375 316.945312 C 366.484375 316.945312 367.972656 316.6875 369.390625 316.1875 C 370.699219 315.703125 372.132812 315.703125 373.441406 316.1875 C 379.929688 318.621094 385.738281 336.320312 379.792969 357.398438 C 377.589844 368.382812 371.1875 378.070312 361.957031 384.421875 C 360.5 385.285156 358.78125 385.664062 357.09375 385.503906 L 356.011719 385.503906 C 349.390625 382.058594 341.230469 384.625 337.785156 391.246094 C 337.527344 391.746094 337.300781 392.269531 337.097656 392.796875 C 317.640625 444.683594 281.5625 476.976562 242.515625 476.976562 C 203.464844 476.976562 168.742188 444.007812 148.746094 392.125 Z M 308.316406 479.136719 L 308.316406 506.160156 C 297.347656 527.117188 275.632812 540.238281 251.972656 540.210938 L 243.328125 540.210938 C 216.722656 543.304688 190.941406 529.792969 178.335938 506.160156 L 178.335938 479.136719 C 215.976562 510.660156 270.808594 510.660156 308.453125 479.136719 Z M 326.828125 739.101562 C 299.804688 740.859375 271.835938 741.804688 243.054688 741.398438 C 200.292969 741.9375 157.527344 740.085938 114.96875 735.859375 L 114.96875 696.269531 C 114.96875 688.8125 108.914062 682.757812 101.457031 682.757812 C 93.996094 682.757812 87.941406 688.808594 87.941406 696.269531 L 87.941406 733.15625 C 60.921875 729.914062 39.167969 726.535156 27.140625 724.507812 L 27.140625 620.875 C 41.734375 561.421875 106.050781 538.046875 160.90625 529.128906 C 178.6875 554.070312 207.859375 568.351562 238.460938 567.097656 L 326.828125 567.097656 Z M 459.511719 724.507812 C 447.351562 726.535156 425.867188 729.914062 398.574219 733.15625 L 398.574219 696.269531 C 398.574219 688.8125 392.519531 682.757812 385.0625 682.757812 C 377.605469 682.757812 371.550781 688.8125 371.550781 696.269531 L 371.550781 735.859375 L 353.851562 737.480469 L 353.851562 553.585938 C 353.851562 546.128906 347.796875 540.074219 340.339844 540.074219 L 316.691406 540.074219 C 320.003906 536.671875 323.03125 533.023438 325.746094 529.128906 C 380.601562 538.046875 444.917969 561.421875 459.511719 620.875 C 459.511719 620.875 459.511719 724.507812 459.511719 724.507812 Z M 459.511719 724.507812 " style=" stroke:none;fill-rule:nonzero;fill:rgb(0%,0%,0%);fill-opacity:1;" />
<path d="M 210.761719 608.445312 C 210.761719 615.683594 204.894531 621.550781 197.65625 621.550781 C 190.417969 621.550781 184.550781 615.683594 184.550781 608.445312 C 184.550781 601.207031 190.417969 595.339844 197.65625 595.339844 C 204.894531 595.339844 210.761719 601.207031 210.761719 608.445312 Z M 210.761719 608.445312 " style=" stroke:none;fill-rule:nonzero;fill:rgb(0%,0%,0%);fill-opacity:1;" />
<path d="M 301.964844 608.445312 C 301.964844 615.683594 296.097656 621.550781 288.859375 621.550781 C 281.621094 621.550781 275.753906 615.683594 275.753906 608.445312 C 275.753906 601.207031 281.621094 595.339844 288.859375 595.339844 C 296.097656 595.339844 301.964844 601.207031 301.964844 608.445312 Z M 301.964844 608.445312 " style=" stroke:none;fill-rule:nonzero;fill:rgb(0%,0%,0%);fill-opacity:1;" />
<path d="M 210.761719 690.59375 C 210.761719 697.832031 204.894531 703.699219 197.65625 703.699219 C 190.417969 703.699219 184.550781 697.832031 184.550781 690.59375 C 184.550781 683.355469 190.417969 677.488281 197.65625 677.488281 C 204.894531 677.488281 210.761719 683.355469 210.761719 690.59375 Z M 210.761719 690.59375 " style=" stroke:none;fill-rule:nonzero;fill:rgb(0%,0%,0%);fill-opacity:1;" />
<path d="M 301.964844 690.59375 C 301.964844 697.832031 296.097656 703.699219 288.859375 703.699219 C 281.621094 703.699219 275.753906 697.832031 275.753906 690.59375 C 275.753906 683.355469 281.621094 677.488281 288.859375 677.488281 C 296.097656 677.488281 301.964844 683.355469 301.964844 690.59375 Z M 301.964844 690.59375 " style=" stroke:none;fill-rule:nonzero;fill:rgb(0%,0%,0%);fill-opacity:1;" />
</g>
</svg>