<?xml version="1.0" encoding="iso-8859-1"?>
<!-- Generator: Adobe Illustrator 19.0.0, SVG Export Plug-In . SVG Version: 6.00 Build 0)  -->
<svg version="1.1" id="Layer_1" xmlns="http://www.w3.org/2000/svg" xmlns:xlink="http://www.w3.org/1999/xlink" x="0px" y="0px"
	 viewBox="0 0 512 512" style="enable-background:new 0 0 512 512;" xml:space="preserve">
<rect x="10.656" y="126.661" style="fill:#FC6E51;" width="489.33" height="122.66"/>
<rect x="41.44" y="255.991" style="fill:#E9573F;" width="428" height="229.33"/>
<rect x="215.32" y="126.661" style="fill:#A0D468;" width="85.01" height="355.34"/>
<g>
	<polygon style="fill:#8CC153;" points="177.438,26.665 141.438,46.665 120.102,90.618 153.438,118.665 248.102,118.665 
		248.102,90.618 	"/>
	<polygon style="fill:#8CC153;" points="333.422,23.329 369.422,43.329 390.766,87.282 357.422,115.329 262.766,115.329 
		262.766,87.282 	"/>
</g>
<path d="M512,112.001H389.516c2.125-2.289,3.938-4.711,5.469-7.266c5.469-9.102,9.562-24.43-1.828-45.766
	c-15.234-28.516-33.516-42.977-54.297-42.977c-23.922,0-48.781,19.555-73.867,58.125c-3.211,4.945-6.219,9.875-8.992,14.641
	c-2.773-4.766-5.781-9.695-9-14.641c-25.086-38.57-49.938-58.125-73.859-58.125c-20.781,0-39.055,14.461-54.297,42.977
	c-11.398,21.336-7.289,36.664-1.836,45.766c1.531,2.555,3.359,4.977,5.484,7.266H0v149.336h32v234.672h170.664h106.664H480V261.336
	h32V112.001z M288,474.664h-64V133.337h64V474.664z M283.031,85.524c20.266-31.086,40.078-48.203,55.828-48.203
	c12.297,0,24.234,10.672,35.469,31.703c8.109,15.156,3.781,22.375,2.375,24.742c-4.312,7.18-14.625,13.43-29.812,18.234h-37.562
	h-40.812c-0.156-0.32-0.328-0.648-0.5-0.984C272.219,103.173,277.297,94.321,283.031,85.524z M135.305,93.767
	c-1.422-2.375-5.742-9.586,2.359-24.742c11.242-21.031,23.18-31.703,35.477-31.703c15.742,0,35.57,17.117,55.828,48.203
	c5.734,8.797,10.812,17.648,15.008,25.492c-0.164,0.336-0.328,0.664-0.492,0.984h-40.82H165.11
	C149.93,107.196,139.609,100.939,135.305,93.767z M21.336,133.337h181.328v106.664H21.336V133.337z M53.336,474.664V261.336h149.328
	v213.328H53.336z M458.672,474.664H309.328V261.336h149.344V474.664z M490.672,240.001H309.328V133.337h181.344V240.001z"/>
<g>
</g>
<g>
</g>
<g>
</g>
<g>
</g>
<g>
</g>
<g>
</g>
<g>
</g>
<g>
</g>
<g>
</g>
<g>
</g>
<g>
</g>
<g>
</g>
<g>
</g>
<g>
</g>
<g>
</g>
</svg>
