<?xml version="1.0" encoding="iso-8859-1"?>
<!-- Generator: Adobe Illustrator 19.0.0, SVG Export Plug-In . SVG Version: 6.00 Build 0)  -->
<svg version="1.1" id="Capa_1" xmlns="http://www.w3.org/2000/svg" xmlns:xlink="http://www.w3.org/1999/xlink" x="0px" y="0px"
	 viewBox="0 0 480.005 480.005" style="enable-background:new 0 0 480.005 480.005;" xml:space="preserve">
<path style="fill:#F7931E;" d="M288.003,408.005h72v40h-72V408.005z"/>
<path style="fill:#754C24;" d="M88.003,400.005h32v72h-32V400.005z"/>
<path style="fill:#29ABE2;" d="M192.003,400.005h48v72h-48V400.005z"/>
<path style="fill:#80CAEC;" d="M240.003,400.005h48v72h-48V400.005z"/>
<path style="fill:#754C24;" d="M360.003,400.005h32v72h-32V400.005z"/>
<path style="fill:#FBB03B;" d="M120.003,344.005v-288l128-48v336H120.003z"/>
<path style="fill:#F7931E;" d="M248.003,360.005v-288l96,40v248H248.003z"/>
<path style="fill:#754C24;" d="M248.003,296.005h96v72h-96V296.005z"/>
<path style="fill:#8C6239;" d="M120.003,272.005h128v72h-128V272.005z"/>
<path style="fill:#FBB03B;" d="M373.691,336.005c-16.008,10.336-34.634,15.886-53.688,16c-56,0-64-48-136-48s-112,56-112,56v48h336
	v-56L373.691,336.005z"/>
<g>
	<path style="fill:#39B54A;" d="M72.003,296.005c0,17.673-14.327,32-32,32s-32-14.327-32-32c0-56,14.328-88,32-88
		S72.003,240.005,72.003,296.005z"/>
	<path style="fill:#39B54A;" d="M472.003,296.005c0,17.673-14.327,32-32,32s-32-14.327-32-32c0-56,14.328-88,32-88
		S472.003,240.005,472.003,296.005z"/>
</g>
<path style="fill:#FBB03B;" d="M288.003,440.005h72v24h-72V440.005z"/>
<path style="fill:#F7931E;" d="M120.003,408.005h72v40h-72V408.005z"/>
<path style="fill:#FBB03B;" d="M120.003,440.005h72v24h-72V440.005z"/>
<path d="M208.003,232.005h16v16h-16V232.005z"/>
<path d="M176.003,232.005h16v16h-16V232.005z"/>
<path d="M304.003,256.005h16v16h-16V256.005z"/>
<path d="M272.003,256.005h16v16h-16V256.005z"/>
<path d="M304.003,224.005h16v16h-16V224.005z"/>
<path d="M272.003,224.005h16v16h-16V224.005z"/>
<path d="M304.003,192.005h16v16h-16V192.005z"/>
<path d="M272.003,192.005h16v16h-16V192.005z"/>
<path d="M304.003,160.005h16v16h-16V160.005z"/>
<path d="M272.003,160.005h16v16h-16V160.005z"/>
<path d="M304.003,128.005h16v16h-16V128.005z"/>
<path d="M272.003,128.005h16v16h-16V128.005z"/>
<path d="M144.003,232.005h16v16h-16V232.005z"/>
<path d="M208.003,200.005h16v16h-16V200.005z"/>
<path d="M176.003,200.005h16v16h-16V200.005z"/>
<path d="M144.003,200.005h16v16h-16V200.005z"/>
<path d="M208.003,168.005h16v16h-16V168.005z"/>
<path d="M176.003,168.005h16v16h-16V168.005z"/>
<path d="M144.003,168.005h16v16h-16V168.005z"/>
<path d="M208.003,136.005h16v16h-16V136.005z"/>
<path d="M176.003,136.005h16v16h-16V136.005z"/>
<path d="M144.003,136.005h16v16h-16V136.005z"/>
<path d="M208.003,104.005h16v16h-16V104.005z"/>
<path d="M176.003,104.005h16v16h-16V104.005z"/>
<path d="M144.003,104.005h16v16h-16V104.005z"/>
<path d="M208.003,72.005h16v16h-16V72.005z"/>
<path d="M176.003,72.005h16v16h-16V72.005z"/>
<path d="M144.003,72.005h16v16h-16V72.005z"/>
<path d="M136.003,336.005h16v16h-16V336.005z"/>
<path d="M168.003,336.005h64v16h-64V336.005z"/>
<path d="M104.003,368.005h168v16h-168V368.005z"/>
<path d="M480.003,296.005c0-59.2-15.328-96-40-96s-40,36.8-40,96c0.024,19.001,13.389,35.373,32,39.2v128.8h-32v-48h8
	c4.418,0,8-3.582,8-8v-56c0-3.107-1.8-5.934-4.616-7.248l-34.312-16c-2.462-1.15-5.339-0.973-7.64,0.472
	c-5.514,3.477-11.352,6.411-17.432,8.76V112.005c0-3.229-1.94-6.141-4.92-7.384l-91.08-37.952V8.005
	c0.003-4.418-3.577-8.002-7.995-8.005c-0.961-0.001-1.914,0.172-2.813,0.509l-128,48c-3.125,1.171-5.194,4.159-5.192,7.496v259.264
	c-18.009,10.146-33.82,23.773-46.512,40.088c-0.968,1.357-1.488,2.982-1.488,4.648v48c0,4.418,3.582,8,8,8h8v48h-32v-128.8
	c18.611-3.827,31.976-20.199,32-39.2c0-59.2-15.328-96-40-96s-40,36.8-40,96c0.024,19.001,13.389,35.373,32,39.2v128.8h-32v16h480
	v-16h-32v-128.8C466.614,331.378,479.979,315.006,480.003,296.005L480.003,296.005z M16.003,296.005c0-55.2,14.032-80,24-80
	s24,24.8,24,80c-0.042,10.134-6.445,19.15-16,22.528v-22.528h-16v22.528C22.448,315.155,16.045,306.139,16.003,296.005z
	 M320.003,344.005c-23.808,0-37.88-9.448-54.168-20.384c-3.2-2.128-6.456-4.288-9.832-6.4v-13.216h80v38.48
	C330.727,343.48,325.371,343.989,320.003,344.005z M336.003,117.341v170.664h-80v-204L336.003,117.341z M240.003,19.549v244.456
	h-112V61.549L240.003,19.549z M128.003,280.005h112v28.184c-17.453-8.398-36.636-12.572-56-12.184
	c-19.246-0.012-38.295,3.871-56,11.416V280.005z M80.003,362.733c25.589-31.294,63.586-49.828,104-50.728
	c35.824,0,54.672,12.656,72.912,24.896c16.92,11.36,34.408,23.104,63.088,23.104c19.067-0.057,37.771-5.22,54.168-14.952
	l25.832,12.048v42.904h-320V362.733z M184.003,416.005v16h-56v-16H184.003z M128.003,448.005h56v16h-56V448.005z M200.003,416.005
	h32v48h-32V416.005z M248.003,416.005h32v48h-32V416.005z M296.003,448.005h56v16h-56V448.005z M352.003,432.005h-56v-16h56V432.005
	z M96.003,464.005v-48h16v48H96.003z M368.003,464.005v-48h16v48H368.003z M416.003,296.005c0-55.2,14.032-80,24-80s24,24.8,24,80
	c-0.042,10.134-6.445,19.15-16,22.528v-22.528h-16v22.528C422.448,315.155,416.045,306.139,416.003,296.005z"/>
<path d="M368.003,368.005h16v16h-16V368.005z"/>
<g>
</g>
<g>
</g>
<g>
</g>
<g>
</g>
<g>
</g>
<g>
</g>
<g>
</g>
<g>
</g>
<g>
</g>
<g>
</g>
<g>
</g>
<g>
</g>
<g>
</g>
<g>
</g>
<g>
</g>
</svg>
