<?xml version="1.0" encoding="iso-8859-1"?>
<!-- Generator: Adobe Illustrator 19.0.0, SVG Export Plug-In . SVG Version: 6.00 Build 0)  -->
<svg version="1.1" id="Capa_1" xmlns="http://www.w3.org/2000/svg" xmlns:xlink="http://www.w3.org/1999/xlink" x="0px" y="0px"
	 viewBox="0 0 423.253 423.253" style="enable-background:new 0 0 423.253 423.253;" xml:space="preserve">
<rect x="109.227" y="91.89" style="fill:#FFFFFF;" width="204.8" height="320.853"/>
<path style="fill:#602F75;" d="M314.027,419.57h-204.8c-3.772,0-6.827-3.058-6.827-6.827V91.89c0-3.768,3.055-6.827,6.827-6.827
	h204.8c3.772,0,6.827,3.058,6.827,6.827v320.853C320.853,416.512,317.798,419.57,314.027,419.57z M116.053,405.917H307.2v-307.2
	H116.053V405.917z"/>
<path style="fill:#00E7FF;" d="M211.627,337.65L211.627,337.65c-18.852,0-34.133,15.281-34.133,34.133v40.96h68.267v-40.96
	C245.76,352.932,230.479,337.65,211.627,337.65z"/>
<path style="fill:#602F75;" d="M245.76,419.57h-68.267c-3.772,0-6.827-3.058-6.827-6.827v-40.96c0-22.586,18.374-40.96,40.96-40.96
	s40.96,18.374,40.96,40.96v40.96C252.587,416.512,249.532,419.57,245.76,419.57z M184.32,405.917h54.613v-34.133
	c0-15.056-12.247-27.307-27.307-27.307c-15.06,0-27.307,12.25-27.307,27.307V405.917z"/>
<rect x="136.533" y="119.197" style="fill:#00E7FF;" width="27.307" height="40.96"/>
<path style="fill:#602F75;" d="M163.84,166.984h-27.307c-3.772,0-6.827-3.058-6.827-6.827v-40.96c0-3.768,3.055-6.827,6.827-6.827
	h27.307c3.772,0,6.827,3.058,6.827,6.827v40.96C170.667,163.925,167.612,166.984,163.84,166.984z M143.36,153.33h13.653v-27.307
	H143.36V153.33z"/>
<rect x="191.147" y="119.197" style="fill:#FFFFFF;" width="40.96" height="40.96"/>
<path style="fill:#602F75;" d="M232.107,166.984h-40.96c-3.772,0-6.827-3.058-6.827-6.827v-40.96c0-3.768,3.055-6.827,6.827-6.827
	h40.96c3.772,0,6.827,3.058,6.827,6.827v40.96C238.933,163.925,235.878,166.984,232.107,166.984z M197.973,153.33h27.307v-27.307
	h-27.307V153.33z"/>
<rect x="259.413" y="119.197" style="fill:#00E7FF;" width="27.307" height="40.96"/>
<path style="fill:#602F75;" d="M286.72,166.984h-27.307c-3.772,0-6.827-3.058-6.827-6.827v-40.96c0-3.768,3.055-6.827,6.827-6.827
	h27.307c3.772,0,6.827,3.058,6.827,6.827v40.96C293.547,163.925,290.492,166.984,286.72,166.984z M266.24,153.33h13.653v-27.307
	H266.24V153.33z"/>
<rect x="136.533" y="187.464" style="fill:#FFFFFF;" width="27.307" height="40.96"/>
<path style="fill:#602F75;" d="M163.84,235.25h-27.307c-3.772,0-6.827-3.058-6.827-6.827v-40.96c0-3.768,3.055-6.827,6.827-6.827
	h27.307c3.772,0,6.827,3.058,6.827,6.827v40.96C170.667,232.192,167.612,235.25,163.84,235.25z M143.36,221.597h13.653V194.29
	H143.36V221.597z"/>
<rect x="191.147" y="187.464" style="fill:#00E7FF;" width="40.96" height="40.96"/>
<path style="fill:#602F75;" d="M232.107,235.25h-40.96c-3.772,0-6.827-3.058-6.827-6.827v-40.96c0-3.768,3.055-6.827,6.827-6.827
	h40.96c3.772,0,6.827,3.058,6.827,6.827v40.96C238.933,232.192,235.878,235.25,232.107,235.25z M197.973,221.597h27.307V194.29
	h-27.307V221.597z"/>
<rect x="259.413" y="187.464" style="fill:#FFFFFF;" width="27.307" height="40.96"/>
<path style="fill:#602F75;" d="M286.72,235.25h-27.307c-3.772,0-6.827-3.058-6.827-6.827v-40.96c0-3.768,3.055-6.827,6.827-6.827
	h27.307c3.772,0,6.827,3.058,6.827,6.827v40.96C293.547,232.192,290.492,235.25,286.72,235.25z M266.24,221.597h13.653V194.29
	H266.24V221.597z"/>
<rect x="136.533" y="255.727" style="fill:#FFFFFF;" width="27.307" height="40.96"/>
<path style="fill:#602F75;" d="M163.84,303.517h-27.307c-3.772,0-6.827-3.058-6.827-6.827v-40.96c0-3.768,3.055-6.827,6.827-6.827
	h27.307c3.772,0,6.827,3.058,6.827,6.827v40.96C170.667,300.459,167.612,303.517,163.84,303.517z M143.36,289.864h13.653v-27.307
	H143.36V289.864z"/>
<rect x="191.147" y="255.727" style="fill:#FFE600;" width="40.96" height="40.96"/>
<path style="fill:#602F75;" d="M232.107,303.517h-40.96c-3.772,0-6.827-3.058-6.827-6.827v-40.96c0-3.768,3.055-6.827,6.827-6.827
	h40.96c3.772,0,6.827,3.058,6.827,6.827v40.96C238.933,300.459,235.878,303.517,232.107,303.517z M197.973,289.864h27.307v-27.307
	h-27.307V289.864z"/>
<rect x="259.413" y="255.727" style="fill:#00E7FF;" width="27.307" height="40.96"/>
<g>
	<path style="fill:#602F75;" d="M286.72,303.517h-27.307c-3.772,0-6.827-3.058-6.827-6.827v-40.96c0-3.768,3.055-6.827,6.827-6.827
		h27.307c3.772,0,6.827,3.058,6.827,6.827v40.96C293.547,300.459,290.492,303.517,286.72,303.517z M266.24,289.864h13.653v-27.307
		H266.24V289.864z"/>
	<path style="fill:#602F75;" d="M150.187,419.57c-3.772,0-6.827-3.058-6.827-6.827v-81.92c0-3.768,3.055-6.827,6.827-6.827
		c3.772,0,6.827,3.058,6.827,6.827v81.92C157.013,416.512,153.958,419.57,150.187,419.57z"/>
	<path style="fill:#602F75;" d="M273.067,419.57c-3.772,0-6.827-3.058-6.827-6.827v-81.92c0-3.768,3.055-6.827,6.827-6.827
		c3.772,0,6.827,3.058,6.827,6.827v81.92C279.893,416.512,276.838,419.57,273.067,419.57z"/>
</g>
<rect x="27.307" y="221.597" style="fill:#EAEAEA;" width="81.92" height="163.84"/>
<path style="fill:#602F75;" d="M109.227,392.264h-81.92c-3.772,0-6.827-3.058-6.827-6.827v-163.84c0-3.768,3.055-6.827,6.827-6.827
	h81.92c3.772,0,6.827,3.058,6.827,6.827v163.84C116.053,389.205,112.998,392.264,109.227,392.264z M34.133,378.61H102.4V228.424
	H34.133V378.61z"/>
<rect x="54.613" y="248.9" style="fill:#FFE600;" width="27.307" height="40.96"/>
<path style="fill:#602F75;" d="M81.92,296.69H54.613c-3.772,0-6.827-3.058-6.827-6.827v-40.96c0-3.768,3.055-6.827,6.827-6.827
	H81.92c3.772,0,6.827,3.058,6.827,6.827v40.96C88.747,293.632,85.692,296.69,81.92,296.69z M61.44,283.037h13.653V255.73H61.44
	V283.037z"/>
<rect x="54.613" y="317.167" style="fill:#FFFFFF;" width="27.307" height="40.96"/>
<g>
	<path style="fill:#602F75;" d="M81.92,364.957H54.613c-3.772,0-6.827-3.058-6.827-6.827v-40.96c0-3.768,3.055-6.827,6.827-6.827
		H81.92c3.772,0,6.827,3.058,6.827,6.827v40.96C88.747,361.899,85.692,364.957,81.92,364.957z M61.44,351.304h13.653v-27.307H61.44
		V351.304z"/>
	<path style="fill:#602F75;" d="M34.133,228.424H6.827c-3.772,0-6.827-3.058-6.827-6.827s3.055-6.827,6.827-6.827h27.307
		c3.772,0,6.827,3.058,6.827,6.827S37.905,228.424,34.133,228.424z"/>
</g>
<rect x="314.027" y="221.59" style="fill:#EAEAEA;" width="81.92" height="163.84"/>
<path style="fill:#602F75;" d="M395.947,392.264h-81.92c-3.772,0-6.827-3.058-6.827-6.827v-163.84c0-3.768,3.055-6.827,6.827-6.827
	h81.92c3.772,0,6.827,3.058,6.827,6.827v163.84C402.773,389.205,399.718,392.264,395.947,392.264z M320.853,378.61h68.267V228.424
	h-68.267V378.61z"/>
<rect x="341.333" y="248.9" style="fill:#FFFFFF;" width="27.307" height="40.96"/>
<path style="fill:#602F75;" d="M368.64,296.69h-27.307c-3.772,0-6.827-3.058-6.827-6.827v-40.96c0-3.768,3.055-6.827,6.827-6.827
	h27.307c3.772,0,6.827,3.058,6.827,6.827v40.96C375.467,293.632,372.412,296.69,368.64,296.69z M348.16,283.037h13.653V255.73
	H348.16V283.037z"/>
<rect x="341.333" y="317.167" style="fill:#FFE600;" width="27.307" height="40.96"/>
<g>
	<path style="fill:#602F75;" d="M368.64,364.957h-27.307c-3.772,0-6.827-3.058-6.827-6.827v-40.96c0-3.768,3.055-6.827,6.827-6.827
		h27.307c3.772,0,6.827,3.058,6.827,6.827v40.96C375.467,361.899,372.412,364.957,368.64,364.957z M348.16,351.304h13.653v-27.307
		H348.16V351.304z"/>
	<path style="fill:#602F75;" d="M416.427,228.424H389.12c-3.772,0-6.827-3.058-6.827-6.827s3.055-6.827,6.827-6.827h27.307
		c3.772,0,6.827,3.058,6.827,6.827S420.198,228.424,416.427,228.424z"/>
	<path style="fill:#602F75;" d="M116.053,98.717H88.747c-3.772,0-6.827-3.058-6.827-6.827s3.055-6.827,6.827-6.827h27.307
		c3.772,0,6.827,3.058,6.827,6.827S119.825,98.717,116.053,98.717z"/>
	<path style="fill:#602F75;" d="M334.507,98.717H307.2c-3.772,0-6.827-3.058-6.827-6.827s3.055-6.827,6.827-6.827h27.307
		c3.772,0,6.827,3.058,6.827,6.827S338.278,98.717,334.507,98.717z"/>
</g>
<g>
	<polygon style="fill:#EA3457;" points="213.743,3.683 223.638,23.729 245.76,26.945 229.751,42.551 233.53,64.584 213.743,54.18 
		193.956,64.584 197.734,42.551 181.726,26.945 203.848,23.729 	"/>
	<polygon style="fill:#EA3457;" points="295.663,10.175 303.449,25.948 320.853,28.477 308.258,40.755 311.231,58.092 
		295.663,49.906 280.095,58.092 283.068,40.755 270.473,28.477 287.877,25.948 	"/>
	<polygon style="fill:#EA3457;" points="368.64,19.135 374.968,31.959 389.12,34.014 378.88,43.998 381.297,58.092 368.64,51.436 
		355.983,58.092 358.4,43.998 348.16,34.014 362.312,31.959 	"/>
	<polygon style="fill:#EA3457;" points="131.823,10.175 124.037,25.948 106.633,28.477 119.228,40.755 116.255,58.092 
		131.823,49.906 147.391,58.092 144.418,40.755 157.013,28.477 139.609,25.948 	"/>
	<polygon style="fill:#EA3457;" points="58.846,19.135 52.518,31.959 38.366,34.014 48.606,43.998 46.189,58.092 58.846,51.436 
		71.503,58.092 69.086,43.998 79.326,34.014 65.174,31.959 	"/>
</g>
<g>
</g>
<g>
</g>
<g>
</g>
<g>
</g>
<g>
</g>
<g>
</g>
<g>
</g>
<g>
</g>
<g>
</g>
<g>
</g>
<g>
</g>
<g>
</g>
<g>
</g>
<g>
</g>
<g>
</g>
</svg>
