<svg viewBox="0 -65 511.99952 511" xmlns="http://www.w3.org/2000/svg"><g fill-rule="evenodd"><path d="m133.769531 272.351562-3.617187-21.960937 15.476562-15.289063c1.273438-1.101562 2.179688-2.648437 2.449219-4.445312.597656-3.996094-2.152344-7.71875-6.148437-8.320312l-21.996094-3.347657-9.953125-19.824219c-.679688-1.371093-1.792969-2.539062-3.269531-3.277343-1.804688-.90625-3.808594-.984375-5.582032-.390625l-24.824218 57.640625-3.132813 19.035156c-.292969 1.542969-.089844 3.191406.683594 4.695313 1.847656 3.582031 6.25 4.992187 9.835937 3.144531l19.761719-10.222657 19.765625 10.222657c1.339844.691406 2.910156.976562 4.515625.714843 3.980469-.644531 6.679687-4.398437 6.035156-8.375zm0 0" fill="#fd4848"/><path d="m234.042969 234.769531 15.808593 15.621094-3.585937 21.78125c-.292969 1.542969-.089844 3.191406.683594 4.695313 1.847656 3.582031 6.253906 4.992187 9.835937 3.144531l19.765625-10.222657 19.761719 10.222657c1.34375.691406 2.910156.976562 4.515625.714843 3.980469-.644531 6.679687-4.398437 6.03125-8.375l-3.175781-19.3125-24.78125-57.53125c-3.398438-1.167968-7.21875.332032-8.871094 3.636719l-9.960938 19.84375-22 3.347657.003907.015624c-1.511719.222657-2.964844.925782-4.121094 2.097657-2.824219 2.875-2.785156 7.496093.089844 10.320312zm0 0" fill="#fd4848"/><path d="m190 142.613281 19.765625 10.21875c1.34375.695313 2.910156.976563 4.515625.714844 3.980469-.644531 6.683594-4.394531 6.035156-8.375l-3.617187-21.960937 15.476562-15.289063c1.277344-1.101563 2.179688-2.648437 2.449219-4.445313.597656-3.996093-2.152344-7.71875-6.148438-8.320312l-21.996093-3.347656-9.953125-19.824219c-.679688-1.371094-1.792969-2.542969-3.265625-3.277344-3.601563-1.800781-7.976563-.339843-9.777344 3.257813l-9.960937 19.84375-21.996094 3.347656v.015625c-1.511719.226563-2.964844.925781-4.117188 2.101563-2.828125 2.875-2.789062 7.496093.085938 10.320312l15.808594 15.621094-3.585938 21.78125c-.289062 1.542968-.089844 3.191406.683594 4.695312 1.847656 3.582032 6.25 4.992188 9.835937 3.144532zm0 0" fill="#fd4848"/><path d="m209.765625 152.832031-19.765625-10.21875-19.761719 10.222657c-3.582031 1.847656-7.988281.4375-9.835937-3.144532-.773438-1.503906-.976563-3.152344-.683594-4.695312l3.585938-21.78125-15.808594-15.621094c-2.875-2.824219-2.914063-7.445312-.085938-10.320312 1.152344-1.171876 2.605469-1.875 4.117188-2.101563v-.015625l21.996094-3.347656 9.960937-19.84375c1.800781-3.597656 6.175781-5.058594 9.777344-3.257813 1.472656.738281 2.585937 1.90625 3.265625 3.277344l9.953125 19.824219 21.996093 3.347656c3.996094.601562 6.746094 4.324219 6.148438 8.320312-.269531 1.796876-1.171875 3.34375-2.449219 4.445313l-15.476562 15.289063 3.617187 21.960937c.644532 3.980469-2.054687 7.730469-6.035156 8.375-1.605469.261719-3.171875-.019531-4.515625-.714844zm-14.226563-141.207031c-7.097656-3.050781-15.328124.230469-18.378906 7.328125l-68.929687 160.054687-7.101563 16.488282c1.773438-.597656 3.777344-.515625 5.585938.390625 1.472656.734375 2.585937 1.902343 3.265625 3.273437l9.953125 19.828125 21.996094 3.347657c3.996093.597656 6.75 4.324218 6.148437 8.320312-.269531 1.796875-1.171875 3.339844-2.449219 4.441406l-15.476562 15.292969 3.617187 21.957031c.644531 3.980469-2.054687 7.730469-6.03125 8.378906-1.605469.261719-3.175781-.023437-4.519531-.714843l-19.761719-10.222657-19.761719 10.222657c-3.585937 1.847656-7.988281.4375-9.835937-3.144531-.777344-1.503907-.976563-3.152344-.6875-4.695313l3.136719-19.035156-32.839844 76.242187c42.117188 10.789063 90.933594 4.761719 140.265625-1.328125 50.335937-6.214843 101.167969-12.488281 151.027344-2.851562l-31.078125-72.160157 3.175781 19.3125c.648437 3.976563-2.050781 7.730469-6.03125 8.375-1.605469.261719-3.171875-.023437-4.515625-.714843l-19.761719-10.222657-19.765625 10.222657c-3.582031 1.847656-7.984375.4375-9.835937-3.144531-.773438-1.503907-.976563-3.152344-.683594-4.695313l3.585937-21.78125-15.808593-15.621094c-2.875-2.824219-2.914063-7.445312-.085938-10.320312 1.152344-1.171875 2.605469-1.871094 4.117188-2.097657v-.015624l21.996093-3.347657 9.960938-19.84375c1.652344-3.304687 5.472656-4.804687 8.875-3.636719l-7.105469-16.5-68.933593-160.054687c-1.363282-3.175781-3.902344-5.855469-7.328126-7.328125zm0 0" fill="#53c9d8"/><path d="m334.757812 325.195312c-49.855468-9.632812-100.6875-3.359374-151.023437 2.855469-49.332031 6.089844-98.148437 12.117188-140.265625 1.328125-.558594-.140625-1.117188-.289062-1.671875-.4375-33.945313-9.070312-44.601563 24.914063-12.824219 33.402344 51.914063 13.910156 106.058594 7.226562 160.785156.46875 51.144532-6.3125 102.84375-12.695312 148.46875-.46875 33.945313 9.070312 44.597657-24.914062 12.824219-33.402344-5.417969-1.453125-10.847656-2.691406-16.292969-3.746094zm0 0" fill="#53c9d8"/><path d="m431.953125 109.023438v245.472656c0 8.800781 7.203125 16 16.003906 16 8.796875 0 16-7.199219 16-16v-245.460938l-16.011719-8.28125zm0 0" fill="#ffeeda"/><path d="m447.945312 100.753906 16.011719 8.28125 7.878907 4.070313c1.621093.839843 3.515624 1.183593 5.457031.867187 4.8125-.78125 8.074219-5.316406 7.292969-10.125l-4.367188-26.546875 18.707031-18.480469c1.542969-1.332031 2.632813-3.203124 2.960938-5.375.722656-4.828124-2.601563-9.332031-7.429688-10.058593l-26.59375-4.042969-12.027343-23.96875c-.820313-1.65625-2.167969-3.070312-3.949219-3.957031-4.351563-2.179688-9.644531-.414063-11.820313 3.9375l-12.039062 23.988281-26.589844 4.046875v.019531c-1.824219.273438-3.582031 1.117188-4.976562 2.539063-3.417969 3.472656-3.371094 9.058593.101562 12.472656l19.109375 18.878906-4.332031 26.332031c-.355469 1.863282-.109375 3.855469.828125 5.675782 2.230469 4.332031 7.554687 6.035156 11.886719 3.800781l7.898437-4.085937zm0 0" fill="#ffcf33"/></g><path d="m353.652344 319.296875c-3.914063-1.050781-7.832032-1.980469-11.753906-2.828125l-129.828126-301.449219c-2.4375-5.667969-6.898437-10.132812-12.570312-12.570312-12.152344-5.222657-26.289062.417969-31.511719 12.570312-2.183593 5.074219.164063 10.957031 5.238281 13.136719 5.070313 2.175781 10.957032-.164062 13.136719-5.238281.867188-2.023438 3.21875-2.960938 5.242188-2.089844 1.207031.515625 1.800781 1.421875 2.089843 2.09375l26.195313 60.828125-6.78125-1.03125-7.625-15.195312c-1.679687-3.375-4.355469-6.050782-7.738281-7.746094-8.523438-4.261719-18.929688-.792969-23.1875 7.71875l-7.640625 15.222656-7.144531 1.085938c.664062-4.386719-1.65625-8.839844-5.925782-10.675782-5.070312-2.183594-10.953125.15625-13.136718 5.230469l-103.167969 239.542969c-19.980469-2.785156-33.425781 7.117187-36.757813 19.578125-3.433594 12.84375 4.265625 28.832031 25.609375 34.539062 23.207031 6.214844 46.871094 8.457031 70.664063 8.457031 31.371094 0 62.957031-3.898437 93.9375-7.722656 49.609375-6.125 100.90625-12.457031 144.664062-.734375 23.738282 6.34375 39.902344-4.347656 43.601563-18.1875 3.433593-12.84375-4.265625-28.832031-25.609375-34.535156zm-96.761719-76.007813-12.003906-11.859374 16.703125-2.542969c3.207031-.484375 5.976562-2.5 7.433594-5.398438l5.949218-11.851562 19.054688 44.25 2.105468 12.78125-14.976562-7.746094c-1.441406-.746094-3.015625-1.117187-4.59375-1.117187-1.574219 0-3.152344.371093-4.59375 1.117187l-14.976562 7.746094 2.742187-16.640625c.523437-3.199219-.535156-6.457032-2.84375-8.738282zm8.457031-54c-1.71875 1.464844-3.183594 3.265626-4.242187 5.382813l-7.640625 15.222656-16.882813 2.566407c-.285156.042968-.566406.101562-.84375.167968-3.394531.679688-6.457031 2.335938-8.898437 4.824219-3.238282 3.292969-5.003906 7.652344-4.964844 12.273437.039062 4.617188 1.875 8.949219 5.152344 12.171876l12.128906 11.984374-2.730469 16.585938c-.667969 3.726562-.085937 7.625 1.648438 10.992188 4.371093 8.480468 14.824219 11.820312 23.320312 7.445312l15.167969-7.84375 15.167969 7.84375c.09375.050781.191406.097656.289062.144531 2.394531 1.183594 4.984375 1.789063 7.621094 1.789063.929687 0 1.871094-.078125 2.808594-.230469 2.054687-.332031 3.953125-1.035156 5.671875-2l10.308594 23.9375c-45.488282-5.554687-91.300782.085937-135.917969 5.59375-44.851563 5.535156-87.472657 10.789063-125.039063 4.046875l14.453125-33.558594c4.898438 2.726563 11.023438 3.035156 16.375.277344l15.167969-7.84375 15.167969 7.84375c.089843.046875.179687.09375.273437.136719 2.398438 1.191406 4.992188 1.796875 7.632813 1.796875.933593 0 1.871093-.078125 2.808593-.230469 4.5625-.742187 8.5625-3.214844 11.261719-6.964844s3.777344-8.328125 3.03125-12.90625l-2.773437-16.855469 11.609375-11.472656c2.957031-2.675781 4.902343-6.304687 5.5-10.257812 1.417969-9.4375-5.109375-18.273438-14.535157-19.691406l-16.882812-2.570313-7.625-15.1875c-1.046875-2.101563-2.476562-3.933594-4.226562-5.425781l30.21875-70.160156 7.679687 7.585937-2.730469 16.589844c-.671875 3.722656-.089844 7.621093 1.648438 10.992187 4.371094 8.480469 14.828125 11.824219 23.316406 7.445313l15.171875-7.847657 15.167969 7.847657c.09375.050781.191406.097656.285156.144531 2.398438 1.183594 4.984375 1.785156 7.621094 1.785156.933594 0 1.871094-.074218 2.8125-.226562 9.414062-1.53125 15.824218-10.4375 14.292968-19.871094l-2.777343-16.859375 7.699219-7.601563zm-175.144531 56.90625 14.871094-34.53125 5.9375 11.824219c1.453125 2.898438 4.222656 4.914063 7.429687 5.398438l16.703125 2.542969-12.007812 11.859374c-2.304688 2.28125-3.363281 5.539063-2.835938 8.738282l2.738281 16.640625-14.976562-7.746094c-2.882812-1.488281-6.308594-1.488281-9.1875 0l-14.976562 7.746094 2.089843-12.6875zm84.839844-144.484374c3.207031-.488282 5.976562-2.5 7.433593-5.402344l7.539063-15.023438 7.539063 15.023438c1.457031 2.902344 4.230468 4.914062 7.4375 5.402344l16.699218 2.539062-12.003906 11.863281c-2.308594 2.277344-3.367188 5.535157-2.839844 8.738281l2.738282 16.636719-14.976563-7.742187c-1.441406-.746094-3.015625-1.121094-4.59375-1.121094-1.574219 0-3.152344.375-4.59375 1.121094l-14.976563 7.742187 2.742188-16.636719c.527344-3.203124-.535156-6.460937-2.839844-8.738281l-12.007812-11.863281zm184.898437 246.957031c-.945312 3.542969-7.503906 7.132812-19.113281 4.03125-47.507813-12.730469-100.769531-6.15625-152.28125.203125-54.996094 6.789062-106.941406 13.203125-156.976563-.203125 0 0-.003906 0-.003906-.003907-8.667968-2.3125-12.324218-6.808593-11.457031-10.050781.691406-2.59375 4.390625-5.210937 10.878906-5.210937 2.375 0 5.121094.351562 8.230469 1.179687.535156.144531 1.074219.273438 1.609375.410157.230469.0625.460937.128906.691406.175781 43.851563 11.074219 94.464844 4.835937 143.457031-1.207031 54.246094-6.695313 110.335938-13.621094 163.503907.625 8.667969 2.316406 12.324219 6.808593 11.460937 10.050781zm0 0"/><path d="m508.308594 40.949219c-2.988282-4.046875-7.378906-6.6875-12.335938-7.433594l-21.476562-3.269531-9.703125-19.328125c-1.828125-3.675781-4.742188-6.59375-8.421875-8.433594-9.277344-4.640625-20.597656-.863281-25.230469 8.398437l-9.71875 19.363282-21.476563 3.269531c-.28125.042969-.5625.097656-.835937.164063-3.722656.730468-7.082031 2.539062-9.765625 5.265624-3.527344 3.585938-5.445312 8.328126-5.402344 13.355469.042969 5.027344 2.039063 9.738281 5.605469 13.246094l15.433594 15.246094-3.480469 21.132812c-.734375 4.058594-.101562 8.304688 1.789062 11.976563 2.304688 4.46875 6.210938 7.773437 11.003907 9.304687 1.886719.605469 3.824219.90625 5.75.90625.640625 0 1.285156-.042969 1.921875-.109375v230.503906c0 14.339844 11.667968 26.003907 26.003906 26.003907s26-11.664063 26-26.003907c0-5.519531-4.476562-10-10-10s-10 4.480469-10 10c0 3.253907-2.75 6-6 6-3.253906 0-6-2.746093-6-6v-239.386718l5.988281-3.09375 6.011719 3.109375v170.40625c0 5.523437 4.476562 10 10 10s10-4.476563 10-10v-161.546875c1.628906.167968 3.285156.132812 4.945312-.140625 4.960938-.804688 9.3125-3.496094 12.25-7.578125 2.9375-4.078125 4.113282-9.058594 3.300782-14.039063l-3.527344-21.441406 14.835938-14.660156c3.234374-2.914063 5.363281-6.875 6.011718-11.191407.75-4.976562-.484375-9.949218-3.476562-13.996093zm-35.105469 29.25c-2.308594 2.28125-3.367187 5.539062-2.839844 8.738281l3.988281 24.21875-5.613281-2.902344c-.003906 0-.003906 0-.003906 0l-16.183594-8.371094c-1.4375-.742187-3.015625-1.117187-4.59375-1.117187-1.574219 0-3.152343.375-4.59375 1.121094l-16.152343 8.351562c-.003907.003907-.007813.003907-.015626.007813l-5.628906 2.910156 3.988282-24.21875c.527343-3.199219-.53125-6.457031-2.839844-8.734375l-17.472656-17.261719 24.300781-3.699218c3.207031-.488282 5.980469-2.5 7.433593-5.398438l10.980469-21.878906 10.984375 21.878906c1.453125 2.898438 4.226563 4.910156 7.433594 5.398438l24.300781 3.699218zm0 0"/><path d="m463.96875 304.273438c-5.523438 0-10 4.480468-10 10v.269531c0 5.523437 4.476562 10 10 10s10-4.476563 10-10v-.269531c0-5.523438-4.476562-10-10-10zm0 0"/><path d="m157.300781 65.105469c1.292969.558593 2.632813.820312 3.953125.820312 3.875 0 7.558594-2.265625 9.1875-6.046875l.109375-.246094c2.183594-5.074218-.15625-10.957031-5.230469-13.140624-5.070312-2.1875-10.953124.152343-13.140624 5.226562l-.105469.246094c-2.183594 5.070312.15625 10.957031 5.226562 13.140625zm0 0"/></svg>