<svg viewBox="1 -8 511.99998 511" xmlns="http://www.w3.org/2000/svg"><path d="m7.347656 6.855469h496.90625v384.703125h-496.90625zm0 0" fill="#d9eef7"/><path d="m39.40625 38.914062h432.789062v320.585938h-432.789062zm0 0" fill="#31e8bb"/><path d="m39.40625 38.914062h56.101562v320.585938h-56.101562zm0 0" fill="#31d4bb"/><path d="m143.597656 455.671875h224.410156v32.058594h-224.410156zm0 0" fill="#d9eef7"/><path d="m327.933594 391.554688h-144.261719l-16.03125 64.117187h176.320313zm0 0" fill="#aac4da"/><path d="m119.554688 143.105469h128.234374v144.261719h-128.234374zm0 0" fill="#ffe451"/><path d="m287.859375 255.308594h64.117187v32.058594h-64.117187zm0 0" fill="#f2f2f2"/><path d="m384.035156 255.308594h32.058594v32.058594h-32.058594zm0 0" fill="#e6e6e6"/><path d="m119.554688 143.105469h32.058593v144.261719h-32.058593zm0 0" fill="#fbb03b"/><path d="m15.09375 15.59375h337.082031v-15.09375h-352.175781v399.796875h71.664062v-15.09375h-56.570312zm0 0"/><path d="m512 400.296875v-399.796875h-135.78125v15.09375h120.6875v369.605469h-401.199219v15.097656h78.496094l-12.257813 49.019531h-25.695312v32.058594h-16.496094v15.097656h120.21875v-15.097656h-88.628906v-16.960938h209.316406v16.960938h-96.644531v15.097656h128.234375v-15.097656h-16.496094v-32.058594h-25.699218l-12.257813-49.019531zm-177.503906 49.023437h-156.992188l12.257813-49.023437h132.476562zm0 0"/><path d="m32.058594 368.238281h447.882812v-335.679687h-447.882812zm15.09375-320.585937h417.695312v305.492187h-417.695312zm0 0"/><path d="m64.117188 112.238281h15.09375v-32.527343h32.527343v-15.09375h-47.621093zm0 0" fill="#fff"/><path d="m432.320312 321.085938h16.03125v15.09375h-16.03125zm0 0" fill="#fff"/><path d="m400.261719 321.085938h16.03125v15.09375h-16.03125zm0 0"/><path d="m64.117188 128.265625h15.09375v16.03125h-15.09375zm0 0"/><path d="m223.472656 104.691406h-79.210937v32.058594h-32.058594v159.355469h143.332031v-63.648438h-15.097656v48.554688h-113.136719v-129.167969h16.960938v24.511719h15.09375v-24.511719h49.023437v24.511719h15.09375v-24.511719h16.964844v56.570312h15.09375v-71.664062h-32.058594zm-64.117187 32.058594v-16.964844h49.023437v16.964844zm0 0"/><path d="m280.511719 296.105469h79.210937v-47.152344h-79.210937zm15.09375-32.058594h49.023437v16.964844h-49.023437zm0 0"/><path d="m376.6875 296.105469h47.152344v-47.152344h-47.152344zm15.09375-32.058594h16.964844v16.964844h-16.964844zm0 0"/><path d="m280.042969 136.75h128.234375v15.09375h-128.234375zm0 0" fill="#fff"/><path d="m280.042969 168.808594h16.03125v15.09375h-16.03125zm0 0"/><path d="m312.101562 168.808594h16.03125v15.09375h-16.03125zm0 0"/><g fill="#fff"><path d="m280.042969 200.867188h136.25v15.09375h-136.25zm0 0"/><path d="m360.191406 168.808594h48.085938v15.09375h-48.085938zm0 0"/></g></svg>