<?xml version="1.0" encoding="iso-8859-1"?>
<!-- Generator: Adobe Illustrator 19.0.0, SVG Export Plug-In . SVG Version: 6.00 Build 0)  -->
<svg version="1.1" id="Capa_1" xmlns="http://www.w3.org/2000/svg" xmlns:xlink="http://www.w3.org/1999/xlink" x="0px" y="0px"
	 viewBox="0 0 488 488" style="enable-background:new 0 0 488 488;" xml:space="preserve">
<path style="fill:#FFF89B;" d="M306.104,271.213L264,159.933h-48l-12.976,36.936l4.976,3.064l-16,168l-32.608-46.88L112,455.933h264
	l-31.28-82.672L272,319.933L306.104,271.213z"/>
<path style="fill:#FFBF41;" d="M208,199.933l-4.976-3.064l-43.632,124.184L192,367.933L208,199.933z"/>
<g>
	<path style="fill:#FFDB43;" d="M184,407.933l9.888,21.112L216,432.429l-16,16.432l3.776,23.208L184,461.109l-19.776,10.96
		L168,448.861l-16-16.432l22.112-3.384L184,407.933z"/>
	<path style="fill:#FFDB43;" d="M272,359.933l14.832,31.6L320,396.605l-24,24.592l5.664,34.736L272,439.533l-29.664,16.4
		L248,421.197l-24-24.592l33.168-5.072L272,359.933z"/>
</g>
<g>
	<path style="fill:#FFF89B;" d="M306.104,271.213l38.616,102.048L392,407.933l56.904-227.632l-64.408-22.024L306.104,271.213z"/>
	<path style="fill:#FFF89B;" d="M203.024,196.869l-100.6-60.296l-40.936,42.864l97.904,141.616L203.024,196.869z"/>
</g>
<path style="fill:#FFBF41;" d="M272,319.933l72.72,53.328l-38.616-102.048L272,319.933z"/>
<path style="fill:#5A6570;" d="M472,47.933h-28.688l24-24H472c4.418,0,8-3.582,8-8s-3.582-8-8-8H8c-4.418,0-8,3.582-8,8s3.582,8,8,8
	h36.688l-24,24H8c-4.418,0-8,3.582-8,8s3.582,8,8,8h23.944l-0.36,47.936c-0.035,4.418,3.517,8.028,7.936,8.064
	c0.003,0,0.006,0,0.008,0h0.056c4.393,0,7.965-3.543,8-7.936l0.36-48.064H232v32c0,4.418,3.582,8,8,8s8-3.582,8-8v-32h192v56
	c0,4.418,3.582,8,8,8s8-3.582,8-8v-56h16c4.418,0,8-3.582,8-8S476.418,47.933,472,47.933z M203.312,47.933L224,27.245l20.688,20.688
	H203.312z M43.312,47.933L64,27.245l20.688,20.688H43.312z M164.688,47.933h-41.376L144,27.245L164.688,47.933z M163.312,23.933
	h41.376L184,44.621L163.312,23.933z M243.312,23.933h41.376L264,44.621L243.312,23.933z M304,27.245l20.688,20.688h-41.376
	L304,27.245z M323.312,23.933h41.376L344,44.621L323.312,23.933z M384,27.245l20.688,20.688h-41.376L384,27.245z M424,44.621
	l-20.688-20.688h41.376L424,44.621z M124.688,23.933L104,44.621L83.312,23.933H124.688z"/>
<g>
	<path style="fill:#364E5E;" d="M280,159.933v-45.144c0-14.832-12.024-26.856-26.856-26.856h-26.288
		c-14.832,0-26.856,12.024-26.856,26.856l0,0v45.144H280z"/>
	<path style="fill:#364E5E;" d="M453.824,105.893l-24.872-8.504c-14.029-4.8-29.293,2.682-34.093,16.712
		c-0.001,0.003-0.002,0.005-0.003,0.008l-14.616,42.712l4.256,1.456l64.408,22.024l7.032,2.4l14.608-42.712
		c4.8-14.029-2.682-29.293-16.712-34.093C453.829,105.894,453.827,105.894,453.824,105.893L453.824,105.893z"/>
	<path style="fill:#364E5E;" d="M79.352,95.365c-10.728-10.241-27.726-9.847-37.968,0.88L23.2,115.253
		c-10.241,10.728-9.847,27.726,0.88,37.968l32.64,31.2l4.744-4.96l40.936-42.888l9.6-10.024L79.352,95.365z"/>
</g>
<path d="M217.232,424.525l-17.888-2.744l-8.08-17.24c-1.875-4.001-6.638-5.724-10.639-3.849c-1.694,0.794-3.056,2.156-3.849,3.849
	l-8.072,17.24l-17.896,2.744c-4.367,0.67-7.365,4.753-6.695,9.12c0.253,1.647,1.013,3.174,2.175,4.368l13.192,13.544l-3.128,19.2
	c-0.716,4.36,2.238,8.475,6.598,9.191c1.775,0.291,3.596-0.024,5.17-0.895l15.88-8.792l15.896,8.8
	c3.863,2.144,8.733,0.751,10.877-3.112c0.875-1.577,1.192-3.404,0.899-5.184l-3.128-19.2l13.184-13.544
	c3.082-3.166,3.014-8.231-0.152-11.313c-1.194-1.162-2.721-1.923-4.368-2.175L217.232,424.525z M194.288,443.285
	c-1.766,1.817-2.568,4.363-2.16,6.864l1.128,6.936l-5.36-2.976c-2.411-1.336-5.341-1.336-7.752,0l-5.36,2.976l1.128-6.936
	c0.408-2.501-0.394-5.047-2.16-6.864l-5.16-5.296l6.752-1.04c2.642-0.403,4.908-2.099,6.04-4.52l2.64-5.6l2.64,5.6
	c1.13,2.419,3.393,4.114,6.032,4.52l6.752,1.04L194.288,443.285z"/>
<path d="M321.232,388.733l-28.952-4.432l-13.016-27.736c-1.875-4.001-6.638-5.724-10.639-3.849
	c-1.694,0.794-3.056,2.156-3.849,3.849l-13.016,27.704l-28.944,4.432c-4.367,0.67-7.365,4.753-6.695,9.12
	c0.253,1.647,1.013,3.174,2.175,4.368l21.176,21.744l-5.008,30.752c-0.711,4.361,2.247,8.472,6.608,9.183
	c1.772,0.289,3.589-0.026,5.16-0.895L272,448.677l25.792,14.256c3.869,2.134,8.735,0.727,10.869-3.142
	c0.864-1.567,1.178-3.379,0.891-5.146l-4.984-30.712l21.176-21.704c3.083-3.165,3.016-8.23-0.15-11.313
	c-1.192-1.161-2.717-1.922-4.362-2.175V388.733z M290.296,415.613c-1.772,1.817-2.576,4.367-2.168,6.872l3.008,18.48l-15.24-8.432
	c-2.409-1.333-5.335-1.333-7.744,0l-15.248,8.432l3.008-18.48c0.408-2.505-0.396-5.055-2.168-6.872l-13.128-13.456l17.784-2.72
	c2.636-0.402,4.897-2.091,6.032-4.504L272,378.765l7.584,16.168c1.136,2.415,3.401,4.104,6.04,4.504l17.776,2.72L290.296,415.613z"
	/>
<path d="M480,23.933c4.418,0,8-3.582,8-8s-3.582-8-8-8H8c-4.418,0-8,3.582-8,8s3.582,8,8,8h36.712l-24,24H8c-4.418,0-8,3.582-8,8
	s3.582,8,8,8h24.352L32,94.469l-14.536,15.264c-13.273,13.926-12.769,35.968,1.128,49.272l32.648,31.2
	c1.488,1.426,3.468,2.222,5.528,2.224h0.184c0.957-0.046,1.899-0.257,2.784-0.624l89.176,128.128l-44.48,133.44
	c-1.396,4.197,0.875,8.732,5.072,10.128s8.732-0.875,10.128-5.072l40.704-122.104l25.144,36.144
	c2.424,3.694,7.384,4.723,11.078,2.299c3.694-2.424,4.723-7.384,2.299-11.078c-0.08-0.121-0.162-0.24-0.248-0.357l-32-45.944
	l48.984-146.96c0.243-0.809,0.354-1.652,0.328-2.496h48.176c-0.025,0.923,0.111,1.843,0.4,2.72l34.8,96.368l-33.832,48.328
	c-2.566,3.597-1.731,8.593,1.866,11.159c3.597,2.566,8.593,1.731,11.159-1.866c0.03-0.041,0.059-0.083,0.087-0.125l27.368-39.096
	l62.552,173.232c1.502,4.155,6.089,6.306,10.244,4.804c4.155-1.502,6.306-6.089,4.804-10.244l-66.4-183.824l70.984-101.408
	l50.896,17.4l-54.768,220.624c-1.067,4.287,1.543,8.628,5.83,9.696c0.001,0,0.001,0,0.002,0c0.627,0.149,1.268,0.227,1.912,0.232
	c3.671-0.006,6.867-2.509,7.752-6.072l54.504-219.432c0.546,0.151,1.106,0.245,1.672,0.28c3.421-0.001,6.463-2.178,7.568-5.416
	l14.608-42.712c6.23-18.201-3.467-38.007-21.664-44.248L456,98.181V63.933h24c4.418,0,8-3.582,8-8s-3.582-8-8-8h-36.664l24-24
	L480,23.933z M364.712,23.933L344,44.621l-20.664-20.688H364.712z M384,27.245l20.712,20.688h-41.376L384,27.245z M324.712,47.933
	h-41.376L304,27.245L324.712,47.933z M284.712,23.933L264,44.621l-20.664-20.688H284.712z M244.712,47.933h-41.376L224,27.245
	L244.712,47.933z M204.712,23.933L184,44.621l-20.664-20.688H204.712z M164.712,47.933h-41.376L144,27.245L164.712,47.933z
	 M124.712,23.933L104,44.621L83.336,23.933H124.712z M64,27.245l20.712,20.688H43.336L64,27.245z M56.48,173.093l-26.832-25.656
	c-7.533-7.19-7.811-19.126-0.621-26.659c0.002-0.002,0.003-0.003,0.005-0.005L47.2,101.765c3.443-3.627,8.193-5.726,13.192-5.832
	H60.8c4.854-0.012,9.523,1.861,13.024,5.224l26.856,25.64L56.48,173.093z M155.2,301.029L71.456,180.605l33.208-34.776
	l83.064,52.856c0.446,0.253,0.915,0.464,1.4,0.632L155.2,301.029z M199.616,167.853l-5.344,16l-78.336-49.848l1.872-1.96
	c3.051-3.196,2.933-8.26-0.263-11.311c0,0-0.001-0.001-0.001-0.001l-32.64-31.2c-6.652-6.451-15.643-9.917-24.904-9.6
	c-4.069,0.123-8.085,0.96-11.864,2.472l0.216-18.472H232v16h-5.12c-19.251,0.009-34.858,15.605-34.88,34.856v45.144
	C192.013,164.184,195.368,167.673,199.616,167.853L199.616,167.853z M272,151.933h-64v-37.144
	c0.013-10.418,8.462-18.856,18.88-18.856h26.28c10.4,0.026,18.822,8.456,18.84,18.856V151.933z M387.28,111.517l-14.608,42.72
	c-0.688,2.008-0.55,4.206,0.384,6.112c0.112,0.232,0.328,0.384,0.464,0.608l-63,90.032l-30.024-83.152
	c4.199-0.233,7.489-3.698,7.504-7.904v-45.144c-0.026-19.233-15.607-34.821-34.84-34.856H248v-16h192v28.8l-8.456-2.896
	c-18.2-6.185-37.977,3.506-44.24,21.68L387.28,111.517z M451.28,113.461c9.85,3.379,15.102,14.097,11.736,23.952l-12,35.136
	L390.4,151.837l12-35.144c3.379-9.864,14.115-15.122,23.979-11.743c0.007,0.002,0.014,0.005,0.021,0.007L451.28,113.461z
	 M424,44.621l-20.664-20.688h41.376L424,44.621z"/>
<g>
</g>
<g>
</g>
<g>
</g>
<g>
</g>
<g>
</g>
<g>
</g>
<g>
</g>
<g>
</g>
<g>
</g>
<g>
</g>
<g>
</g>
<g>
</g>
<g>
</g>
<g>
</g>
<g>
</g>
</svg>
