<?xml version="1.0" encoding="iso-8859-1"?>
<!-- Generator: Adobe Illustrator 19.0.0, SVG Export Plug-In . SVG Version: 6.00 Build 0)  -->
<svg version="1.1" id="Layer_1" xmlns="http://www.w3.org/2000/svg" xmlns:xlink="http://www.w3.org/1999/xlink" x="0px" y="0px"
	 viewBox="0 0 512.001 512.001" style="enable-background:new 0 0 512.001 512.001;" xml:space="preserve">
<path style="fill:#B4E66E;" d="M438.233,280.85V166.838c0-6.275-3.545-12.011-9.158-14.817l-19.397-9.698
	c-2.806-1.403-4.578-4.271-4.578-7.409v-19.731h-33.133v19.731c0,3.138-1.773,6.006-4.578,7.409l-19.397,9.698
	c-5.613,2.806-9.158,8.543-9.158,14.817V280.85H438.233z"/>
<rect x="355.4" y="280.85" style="fill:#7F8499;" width="66.27" height="107.68"/>
<rect x="384.39" y="156.6" style="fill:#A0D755;" width="8.283" height="124.25"/>
<path style="fill:#E6AF78;" d="M388.533,156.6L388.533,156.6c-9.15,0-16.567-7.417-16.567-16.567v-24.85H405.1v24.85
	C405.1,149.183,397.683,156.6,388.533,156.6z"/>
<path style="fill:#F0C087;" d="M388.533,123.467L388.533,123.467c-18.299,0-33.133-14.834-33.133-33.133V73.767
	c0-13.724,11.126-24.85,24.85-24.85h16.567c13.724,0,24.85,11.126,24.85,24.85v16.567
	C421.667,108.632,406.832,123.467,388.533,123.467z"/>
<path style="fill:#E6AF78;" d="M380.25,90.333V73.767c0-12.306,8.966-22.452,20.708-24.432c-1.354-0.229-2.723-0.418-4.142-0.418
	H380.25c-13.724,0-24.85,11.126-24.85,24.85v16.567c0,18.299,14.834,33.133,33.133,33.133c4.401,0,8.583-0.899,12.425-2.457
	C388.826,116.089,380.25,104.231,380.25,90.333z"/>
<path style="fill:#694B4B;" d="M355.4,73.767c0,0,24.85,8.283,66.267,8.283v-8.283c0-13.724-11.126-24.85-24.85-24.85H380.25
	C366.526,48.917,355.4,60.042,355.4,73.767L355.4,73.767z"/>
<path style="fill:#5A4146;" d="M380.25,73.767c0-12.306,8.966-22.452,20.708-24.432c-1.354-0.229-2.723-0.418-4.142-0.418H380.25
	c-13.724,0-24.85,11.126-24.85,24.85c0,0,8.909,2.946,24.85,5.325V73.767z"/>
<g>
	<path style="fill:#A0D755;" d="M357.056,168.196l-14.859-11.144c-2.078,2.803-3.364,6.165-3.364,9.786V280.85h24.85v-99.4
		C363.683,176.236,361.228,171.325,357.056,168.196z"/>
	<path style="fill:#A0D755;" d="M420.01,168.196l14.859-11.144c2.078,2.803,3.364,6.165,3.364,9.786V280.85h-24.85v-99.4
		C413.383,176.236,415.838,171.325,420.01,168.196z"/>
</g>
<path style="fill:#FFF082;" d="M173.167,280.85V166.838c0-6.275-3.545-12.011-9.158-14.817l-19.397-9.698
	c-2.806-1.403-4.578-4.271-4.578-7.409v-19.731H106.9v19.731c0,3.138-1.773,6.006-4.578,7.409l-19.397,9.698
	c-5.613,2.806-9.158,8.543-9.158,14.817V280.85H173.167z"/>
<rect x="90.33" y="280.85" style="fill:#707487;" width="66.27" height="107.68"/>
<rect x="119.33" y="156.6" style="fill:#FFDC64;" width="8.283" height="124.25"/>
<path style="fill:#E6AF78;" d="M123.466,156.6L123.466,156.6c-9.15,0-16.567-7.417-16.567-16.567v-24.85h33.133v24.85
	C140.033,149.183,132.616,156.6,123.466,156.6z"/>
<path style="fill:#F0C087;" d="M123.467,123.467L123.467,123.467c-18.299,0-33.133-14.834-33.133-33.133V73.767
	c0-13.724,11.126-24.85,24.85-24.85h16.567c13.724,0,24.85,11.126,24.85,24.85v16.567
	C156.6,108.632,141.766,123.467,123.467,123.467z"/>
<path style="fill:#E6AF78;" d="M115.183,90.333V73.767c0-12.306,8.966-22.452,20.708-24.432c-1.354-0.229-2.723-0.418-4.142-0.418
	h-16.567c-13.724,0-24.85,11.126-24.85,24.85v16.567c0,18.299,14.834,33.133,33.133,33.133c4.401,0,8.583-0.899,12.425-2.457
	C123.759,116.089,115.183,104.231,115.183,90.333z"/>
<path style="fill:#694B4B;" d="M90.333,73.767c0,0,24.85,8.283,66.267,8.283v-8.283c0-13.724-11.126-24.85-24.85-24.85h-16.567
	C101.459,48.917,90.333,60.042,90.333,73.767L90.333,73.767z"/>
<path style="fill:#5A4146;" d="M115.183,73.767c0-12.306,8.966-22.452,20.708-24.432c-1.354-0.229-2.723-0.418-4.142-0.418h-16.567
	c-13.724,0-24.85,11.126-24.85,24.85c0,0,8.909,2.946,24.85,5.325v-5.325H115.183z"/>
<g>
	<path style="fill:#FFDC64;" d="M91.99,168.196l-14.859-11.144c-2.078,2.803-3.364,6.165-3.364,9.786V280.85h24.85v-99.4
		C98.617,176.236,96.162,171.325,91.99,168.196z"/>
	<path style="fill:#FFDC64;" d="M154.944,168.196l14.859-11.144c2.078,2.803,3.364,6.165,3.364,9.786V280.85h-24.85v-99.4
		C148.317,176.236,150.772,171.325,154.944,168.196z"/>
</g>
<path style="fill:#E2E7F2;" d="M305.7,280.85V166.838c0-6.275-3.545-12.011-9.158-14.817l-19.397-9.698
	c-2.806-1.403-4.578-4.271-4.578-7.409v-19.731h-33.133v19.731c0,3.138-1.773,6.006-4.578,7.409l-19.397,9.698
	c-5.613,2.806-9.158,8.543-9.158,14.817V280.85H305.7z"/>
<rect x="222.87" y="280.85" style="fill:#7F8499;" width="66.27" height="107.68"/>
<rect x="251.86" y="156.6" style="fill:#C7CFE2;" width="8.283" height="124.25"/>
<path style="fill:#E6AF78;" d="M256,156.6L256,156.6c-9.15,0-16.567-7.417-16.567-16.567v-24.85h33.133v24.85
	C272.566,149.183,265.149,156.6,256,156.6z"/>
<path style="fill:#F0C087;" d="M256,123.467L256,123.467c-18.299,0-33.133-14.834-33.133-33.133V73.767
	c0-13.724,11.126-24.85,24.85-24.85h16.567c13.724,0,24.85,11.126,24.85,24.85v16.567C289.133,108.632,274.299,123.467,256,123.467z
	"/>
<path style="fill:#E6AF78;" d="M247.717,90.333V73.767c0-12.306,8.966-22.452,20.708-24.432c-1.354-0.229-2.723-0.418-4.142-0.418
	h-16.567c-13.724,0-24.85,11.126-24.85,24.85v16.567c0,18.299,14.834,33.133,33.133,33.133c4.401,0,8.583-0.899,12.425-2.457
	C256.292,116.089,247.717,104.231,247.717,90.333z"/>
<path style="fill:#694B4B;" d="M222.867,73.767c0,0,24.85,8.283,66.267,8.283v-8.283c0-13.724-11.126-24.85-24.85-24.85h-16.567
	C233.992,48.917,222.867,60.042,222.867,73.767L222.867,73.767z"/>
<path style="fill:#5A4146;" d="M247.717,73.767c0-12.306,8.966-22.452,20.708-24.432c-1.354-0.229-2.723-0.418-4.142-0.418h-16.567
	c-13.724,0-24.85,11.126-24.85,24.85c0,0,8.909,2.946,24.85,5.325v-5.325H247.717z"/>
<g>
	<path style="fill:#C7CFE2;" d="M224.523,168.196l-14.859-11.144c-2.078,2.803-3.364,6.165-3.364,9.786V280.85h24.85v-99.4
		C231.15,176.236,228.695,171.325,224.523,168.196z"/>
	<path style="fill:#C7CFE2;" d="M287.477,168.196l14.859-11.144c2.078,2.803,3.364,6.165,3.364,9.786V280.85h-24.85v-99.4
		C280.85,176.236,283.305,171.325,287.477,168.196z"/>
</g>
<path style="fill:#00C3FF;" d="M97.742,292.838l-19.397-9.698c-2.806-1.403-4.578-4.271-4.578-7.409V256H40.633v19.731
	c0,3.138-1.773,6.006-4.578,7.409l-19.397,9.698c-5.613,2.806-9.158,8.543-9.158,14.817v81.638c0,4.906,1.452,9.702,4.174,13.784
	l8.219,12.329c2.722,4.082,4.174,8.878,4.174,13.784v33.893h66.267V429.19c0-4.906,1.452-9.702,4.174-13.784l8.219-12.329
	c2.722-4.082,4.174-8.878,4.174-13.784v-81.638C106.9,301.38,103.355,295.644,97.742,292.838z"/>
<g>
	<path style="fill:#00AAF0;" d="M19.893,415.406c2.722,4.082,4.174,8.878,4.174,13.784v0.759h8.283V322.267
		c0-5.214-2.455-10.125-6.627-13.254l-14.859-11.144c-2.078,2.803-3.364,6.165-3.364,9.786v81.638c0,4.906,1.452,9.702,4.174,13.784
		L19.893,415.406z"/>
	<path style="fill:#00AAF0;" d="M94.507,415.406c-2.722,4.082-4.174,8.878-4.174,13.784v0.759H82.05V322.267
		c0-5.214,2.455-10.125,6.627-13.254l14.859-11.144c2.078,2.803,3.364,6.165,3.364,9.786v81.638c0,4.906-1.452,9.702-4.174,13.784
		L94.507,415.406z"/>
</g>
<rect x="24.07" y="413.38" style="fill:#7F8499;" width="66.27" height="49.7"/>
<path style="fill:#707487;" d="M57.2,429.95c-2.288,0-4.142,1.854-4.142,4.142v28.992h8.283v-28.992
	C61.342,431.804,59.487,429.95,57.2,429.95z"/>
<rect x="53.06" y="297.42" style="fill:#00AAF0;" width="8.283" height="115.97"/>
<path style="fill:#E6AF78;" d="M57.2,297.417L57.2,297.417c-9.15,0-16.567-7.417-16.567-16.567V256h33.133v24.85
	C73.766,290,66.349,297.417,57.2,297.417z"/>
<path style="fill:#F0C087;" d="M57.2,264.283L57.2,264.283c-18.299,0-33.133-14.834-33.133-33.133v-16.567
	c0-13.724,11.126-24.85,24.85-24.85h16.567c13.724,0,24.85,11.126,24.85,24.85v16.567C90.333,249.449,75.499,264.283,57.2,264.283z"
	/>
<path style="fill:#E6AF78;" d="M48.917,231.15v-16.567c0-12.306,8.966-22.452,20.708-24.432c-1.354-0.229-2.723-0.418-4.142-0.418
	H48.917c-13.724,0-24.85,11.126-24.85,24.85v16.567c0,18.299,14.834,33.133,33.133,33.133c4.401,0,8.583-0.899,12.425-2.457
	C57.492,256.906,48.917,245.048,48.917,231.15z"/>
<path style="fill:#694B4B;" d="M24.067,214.583c0,0,24.85,8.283,66.267,8.283v-8.283c0-13.724-11.126-24.85-24.85-24.85H48.917
	C35.192,189.733,24.067,200.859,24.067,214.583L24.067,214.583z"/>
<path style="fill:#5A4146;" d="M48.917,214.583c0-12.306,8.966-22.452,20.708-24.432c-1.354-0.229-2.723-0.418-4.142-0.418H48.917
	c-13.724,0-24.85,11.126-24.85,24.85c0,0,8.909,2.946,24.85,5.325V214.583z"/>
<path style="fill:#AFB9D2;" d="M230.275,292.838l-19.397-9.698c-2.806-1.403-4.578-4.271-4.578-7.409V256h-33.133v19.731
	c0,3.138-1.773,6.006-4.578,7.409l-19.397,9.698c-5.613,2.806-9.158,8.543-9.158,14.817v81.638c0,4.906,1.452,9.702,4.174,13.784
	l8.219,12.329c2.722,4.082,4.174,8.878,4.174,13.784v33.893h66.267V429.19c0-4.906,1.452-9.702,4.174-13.784l8.219-12.329
	c2.722-4.082,4.174-8.878,4.174-13.784v-81.638C239.433,301.38,235.888,295.644,230.275,292.838z"/>
<g>
	<path style="fill:#959CB5;" d="M152.426,415.406c2.722,4.082,4.174,8.878,4.174,13.784v0.759h8.283V322.267
		c0-5.214-2.455-10.125-6.627-13.254l-14.859-11.144c-2.078,2.803-3.364,6.165-3.364,9.786v81.638c0,4.906,1.452,9.702,4.174,13.784
		L152.426,415.406z"/>
	<path style="fill:#959CB5;" d="M227.041,415.406c-2.722,4.082-4.174,8.878-4.174,13.784v0.759h-8.283V322.267
		c0-5.214,2.455-10.125,6.627-13.254l14.859-11.144c2.078,2.803,3.364,6.165,3.364,9.786v81.638c0,4.906-1.452,9.702-4.174,13.784
		L227.041,415.406z"/>
</g>
<rect x="156.6" y="413.38" style="fill:#707487;" width="66.27" height="49.7"/>
<path style="fill:#5B5D6E;" d="M189.733,429.95c-2.288,0-4.142,1.854-4.142,4.142v28.992h8.283v-28.992
	C193.875,431.804,192.021,429.95,189.733,429.95z"/>
<rect x="185.59" y="297.42" style="fill:#959CB5;" width="8.283" height="115.97"/>
<path style="fill:#E6AF78;" d="M189.733,297.417L189.733,297.417c-9.15,0-16.567-7.417-16.567-16.567V256H206.3v24.85
	C206.3,290,198.883,297.417,189.733,297.417z"/>
<path style="fill:#F0C087;" d="M189.733,264.283L189.733,264.283c-18.299,0-33.133-14.834-33.133-33.133v-16.567
	c0-13.724,11.126-24.85,24.85-24.85h16.567c13.724,0,24.85,11.126,24.85,24.85v16.567
	C222.867,249.449,208.032,264.283,189.733,264.283z"/>
<path style="fill:#E6AF78;" d="M181.45,231.15v-16.567c0-12.306,8.966-22.452,20.708-24.432c-1.354-0.229-2.723-0.418-4.142-0.418
	H181.45c-13.724,0-24.85,11.126-24.85,24.85v16.567c0,18.299,14.834,33.133,33.133,33.133c4.401,0,8.583-0.899,12.425-2.457
	C190.026,256.906,181.45,245.048,181.45,231.15z"/>
<path style="fill:#694B4B;" d="M156.6,214.583c0,0,24.85,8.283,66.267,8.283v-8.283c0-13.724-11.126-24.85-24.85-24.85H181.45
	C167.726,189.733,156.6,200.859,156.6,214.583L156.6,214.583z"/>
<path style="fill:#5A4146;" d="M181.45,214.583c0-12.306,8.966-22.452,20.708-24.432c-1.354-0.229-2.723-0.418-4.142-0.418H181.45
	c-13.724,0-24.85,11.126-24.85,24.85c0,0,8.909,2.946,24.85,5.325V214.583z"/>
<path style="fill:#FF507D;" d="M362.809,292.838l-19.397-9.698c-2.806-1.403-4.578-4.271-4.578-7.409V256H305.7v19.731
	c0,3.138-1.773,6.006-4.578,7.409l-19.397,9.698c-5.613,2.806-9.158,8.543-9.158,14.817v81.638c0,4.906,1.452,9.702,4.174,13.784
	l8.219,12.329c2.722,4.082,4.174,8.878,4.174,13.784v33.893H355.4V429.19c0-4.906,1.452-9.702,4.174-13.784l8.219-12.329
	c2.722-4.082,4.174-8.878,4.174-13.784v-81.638C371.967,301.38,368.422,295.644,362.809,292.838z"/>
<g>
	<path style="fill:#D23C69;" d="M284.959,415.406c2.722,4.082,4.174,8.878,4.174,13.784v0.759h8.283V322.267
		c0-5.214-2.455-10.125-6.627-13.254l-14.859-11.144c-2.078,2.803-3.364,6.165-3.364,9.786v81.638c0,4.906,1.452,9.702,4.174,13.784
		L284.959,415.406z"/>
	<path style="fill:#D23C69;" d="M359.574,415.406c-2.722,4.082-4.174,8.878-4.174,13.784v0.759h-8.283V322.267
		c0-5.214,2.455-10.125,6.627-13.254l14.859-11.144c2.078,2.803,3.364,6.165,3.364,9.786v81.638c0,4.906-1.452,9.702-4.174,13.784
		L359.574,415.406z"/>
</g>
<rect x="289.13" y="413.38" style="fill:#7F8499;" width="66.27" height="49.7"/>
<path style="fill:#707487;" d="M322.267,429.95c-2.288,0-4.142,1.854-4.142,4.142v28.992h8.283v-28.992
	C326.408,431.804,324.554,429.95,322.267,429.95z"/>
<rect x="318.12" y="297.42" style="fill:#D23C69;" width="8.283" height="115.97"/>
<path style="fill:#E6AF78;" d="M322.266,297.417L322.266,297.417c-9.15,0-16.567-7.417-16.567-16.567V256h33.133v24.85
	C338.833,290,331.416,297.417,322.266,297.417z"/>
<path style="fill:#F0C087;" d="M322.267,264.283L322.267,264.283c-18.299,0-33.133-14.834-33.133-33.133v-16.567
	c0-13.724,11.126-24.85,24.85-24.85h16.567c13.724,0,24.85,11.126,24.85,24.85v16.567
	C355.4,249.449,340.566,264.283,322.267,264.283z"/>
<path style="fill:#E6AF78;" d="M313.983,231.15v-16.567c0-12.306,8.966-22.452,20.708-24.432c-1.354-0.229-2.723-0.418-4.142-0.418
	h-16.567c-13.724,0-24.85,11.126-24.85,24.85v16.567c0,18.299,14.834,33.133,33.133,33.133c4.401,0,8.583-0.899,12.425-2.457
	C322.559,256.906,313.983,245.048,313.983,231.15z"/>
<path style="fill:#694B4B;" d="M289.133,214.583c0,0,24.85,8.283,66.267,8.283v-8.283c0-13.724-11.126-24.85-24.85-24.85h-16.567
	C300.259,189.733,289.133,200.859,289.133,214.583L289.133,214.583z"/>
<path style="fill:#5A4146;" d="M313.983,214.583c0-12.306,8.966-22.452,20.708-24.432c-1.354-0.229-2.723-0.418-4.142-0.418h-16.567
	c-13.724,0-24.85,11.126-24.85,24.85c0,0,8.909,2.946,24.85,5.325L313.983,214.583L313.983,214.583z"/>
<path style="fill:#C7CFE2;" d="M495.342,292.838l-19.397-9.698c-2.806-1.403-4.578-4.271-4.578-7.409V256h-33.133v19.731
	c0,3.138-1.773,6.006-4.578,7.409l-19.397,9.698c-5.613,2.806-9.158,8.543-9.158,14.817v81.638c0,4.906,1.452,9.702,4.174,13.784
	l8.219,12.329c2.722,4.082,4.174,8.878,4.174,13.784v33.893h66.267V429.19c0-4.906,1.452-9.702,4.174-13.784l8.219-12.329
	c2.722-4.082,4.174-8.878,4.174-13.784v-81.638C504.5,301.38,500.955,295.644,495.342,292.838z"/>
<g>
	<path style="fill:#AFB9D2;" d="M417.493,415.406c2.722,4.082,4.174,8.878,4.174,13.784v0.759h8.283V322.267
		c0-5.214-2.455-10.125-6.627-13.254l-14.859-11.144c-2.078,2.803-3.364,6.165-3.364,9.786v81.638c0,4.906,1.452,9.702,4.174,13.784
		L417.493,415.406z"/>
	<path style="fill:#AFB9D2;" d="M492.107,415.406c-2.722,4.082-4.174,8.878-4.174,13.784v0.759h-8.283V322.267
		c0-5.214,2.455-10.125,6.627-13.254l14.859-11.144c2.078,2.803,3.364,6.165,3.364,9.786v81.638c0,4.906-1.452,9.702-4.174,13.784
		L492.107,415.406z"/>
</g>
<rect x="421.67" y="413.38" style="fill:#7F8499;" width="66.27" height="49.7"/>
<path style="fill:#707487;" d="M454.8,429.95c-2.288,0-4.142,1.854-4.142,4.142v28.992h8.283v-28.992
	C458.942,431.804,457.087,429.95,454.8,429.95z"/>
<rect x="450.66" y="297.42" style="fill:#AFB9D2;" width="8.283" height="115.97"/>
<path style="fill:#E6AF78;" d="M454.8,297.417L454.8,297.417c-9.15,0-16.567-7.417-16.567-16.567V256h33.133v24.85
	C471.366,290,463.949,297.417,454.8,297.417z"/>
<path style="fill:#F0C087;" d="M454.8,264.283L454.8,264.283c-18.299,0-33.133-14.834-33.133-33.133v-16.567
	c0-13.724,11.126-24.85,24.85-24.85h16.567c13.724,0,24.85,11.126,24.85,24.85v16.567
	C487.933,249.449,473.099,264.283,454.8,264.283z"/>
<path style="fill:#E6AF78;" d="M446.517,231.15v-16.567c0-12.306,8.966-22.452,20.708-24.432c-1.354-0.229-2.723-0.418-4.142-0.418
	h-16.567c-13.724,0-24.85,11.126-24.85,24.85v16.567c0,18.299,14.834,33.133,33.133,33.133c4.401,0,8.583-0.899,12.425-2.457
	C455.092,256.906,446.517,245.048,446.517,231.15z"/>
<path style="fill:#694B4B;" d="M421.667,214.583c0,0,24.85,8.283,66.267,8.283v-8.283c0-13.724-11.126-24.85-24.85-24.85h-16.567
	C432.792,189.733,421.667,200.859,421.667,214.583L421.667,214.583z"/>
<path style="fill:#5A4146;" d="M446.517,214.583c0-12.306,8.966-22.452,20.708-24.432c-1.354-0.229-2.723-0.418-4.142-0.418h-16.567
	c-13.724,0-24.85,11.126-24.85,24.85c0,0,8.909,2.946,24.85,5.325L446.517,214.583L446.517,214.583z"/>
<path d="M498.696,286.13l-19.396-9.698c-0.269-0.134-0.435-0.403-0.435-0.702v-11.867c10.04-7.405,16.567-19.31,16.567-32.714
	v-16.566c0-17.838-14.513-32.35-32.351-32.35h-16.566c-0.263,0-0.522,0.014-0.783,0.02v-15.414c0-9.175-5.098-17.424-13.304-21.526
	l-19.396-9.698c-0.269-0.134-0.435-0.403-0.435-0.701v-11.867c10.04-7.405,16.567-19.31,16.567-32.714V73.767
	c0-17.838-14.513-32.35-32.351-32.35H380.25c-17.838,0-32.35,14.512-32.35,32.35v16.567c0,13.404,6.527,25.308,16.566,32.714v11.867
	c0,0.298-0.166,0.567-0.434,0.701l-19.396,9.698c-8.206,4.103-13.304,12.351-13.304,21.526v15.414
	c-0.261-0.006-0.521-0.02-0.783-0.02h-16.566c-0.263,0-0.522,0.014-0.783,0.02V166.84c0-9.175-5.098-17.423-13.304-21.526
	l-19.396-9.698c-0.268-0.134-0.434-0.402-0.434-0.701v-11.867c10.04-7.405,16.567-19.31,16.567-32.714V73.767
	c0-17.838-14.513-32.35-32.351-32.35h-16.566c-17.838,0-32.35,14.512-32.35,32.35v16.567c0,13.404,6.527,25.308,16.566,32.714
	v11.867c0,0.299-0.166,0.567-0.433,0.701l-19.396,9.698c-8.206,4.103-13.304,12.352-13.304,21.526v15.414
	c-0.261-0.006-0.521-0.02-0.783-0.02H181.45c-0.263,0-0.522,0.014-0.784,0.02V166.84c0-9.175-5.098-17.423-13.304-21.526
	l-19.396-9.698c-0.268-0.134-0.434-0.402-0.434-0.701v-11.867c10.039-7.405,16.567-19.31,16.567-32.714V73.767
	c0-17.838-14.512-32.35-32.35-32.35h-16.567c-17.837,0-32.35,14.512-32.35,32.35v16.567c0,13.404,6.527,25.308,16.566,32.714v11.867
	c0,0.299-0.166,0.567-0.433,0.701l-19.397,9.698c-8.206,4.103-13.304,12.351-13.304,21.526v15.414
	c-0.261-0.006-0.521-0.02-0.783-0.02H48.917c-17.837,0-32.35,14.512-32.35,32.35v16.566c0,13.404,6.527,25.308,16.566,32.714v11.867
	c0,0.299-0.166,0.567-0.433,0.701l-19.396,9.698C5.098,290.233,0,298.481,0,307.655v81.637c0,6.408,1.878,12.613,5.433,17.945
	l8.219,12.329c1.907,2.86,2.915,6.188,2.915,9.624v33.893c0,4.142,3.358,7.5,7.5,7.5s7.5-3.358,7.5-7.5V429.19
	c0-6.407-1.879-12.612-5.434-17.944l-8.219-12.329c-1.906-2.859-2.914-6.188-2.914-9.625v-81.637c0-3.456,1.92-6.563,5.012-8.109
	l13.618-6.809l12.409,12.409c3.077,3.078,7.118,4.616,11.161,4.616c4.041,0,8.083-1.539,11.16-4.616l12.41-12.409l13.618,6.809
	c3.091,1.546,5.012,4.653,5.012,8.109v81.637c0,3.437-1.008,6.765-2.914,9.625l-8.22,12.329c-3.554,5.332-5.433,11.537-5.433,17.944
	v33.893c0,4.142,3.358,7.5,7.5,7.5s7.5-3.358,7.5-7.5V429.19c0-3.437,1.008-6.765,2.914-9.624l8.22-12.329
	c3.554-5.332,5.433-11.537,5.433-17.945v-81.637c0-9.174-5.098-17.422-13.304-21.525L81.7,276.432
	c-0.268-0.134-0.434-0.402-0.434-0.701v-11.867c10.039-7.405,16.567-19.31,16.567-32.714v-16.566
	c0-12.109-6.691-22.679-16.567-28.224v-19.521c0-3.457,1.92-6.564,5.012-8.11l13.619-6.809l12.41,12.41
	c3.077,3.076,7.118,4.615,11.16,4.615c4.042,0,8.083-1.539,11.161-4.615l12.41-12.41l13.618,6.809
	c3.091,1.545,5.012,4.653,5.012,8.109v19.521c-9.875,5.545-16.566,16.115-16.566,28.223v16.566c0,13.404,6.527,25.308,16.566,32.714
	v11.867c0,0.299-0.166,0.567-0.433,0.701l-19.397,9.698c-8.206,4.103-13.304,12.351-13.304,21.525v81.637
	c0,6.408,1.879,12.614,5.434,17.945l8.219,12.33c1.906,2.859,2.914,6.187,2.914,9.624v33.893c0,4.142,3.358,7.5,7.5,7.5
	s7.5-3.358,7.5-7.5V429.19c0-6.408-1.879-12.613-5.434-17.944l-8.219-12.33c-1.906-2.859-2.914-6.187-2.914-9.624v-81.637
	c0-3.456,1.92-6.563,5.012-8.109l13.619-6.809l12.409,12.409c3.077,3.078,7.118,4.616,11.161,4.616c4.041,0,8.083-1.539,11.16-4.616
	l12.41-12.409l13.618,6.81c3.091,1.545,5.012,4.652,5.012,8.109v81.637c0,3.437-1.008,6.765-2.914,9.625l-8.22,12.329
	c-3.554,5.332-5.433,11.537-5.433,17.944v33.893c0,4.142,3.358,7.5,7.5,7.5s7.5-3.358,7.5-7.5V429.19
	c0-3.437,1.008-6.765,2.914-9.624l8.22-12.329c3.554-5.332,5.433-11.537,5.433-17.945v-81.637c0-9.175-5.098-17.423-13.304-21.525
	l-19.396-9.698c-0.268-0.134-0.434-0.402-0.434-0.701v-11.867c10.039-7.405,16.567-19.31,16.567-32.714v-16.566
	c0-12.109-6.691-22.679-16.567-28.224v-19.521c0-3.457,1.92-6.564,5.012-8.11l13.618-6.809l12.41,12.41
	c3.077,3.076,7.118,4.614,11.16,4.614c4.042,0,8.083-1.538,11.162-4.615l12.409-12.409l13.618,6.809
	c3.092,1.546,5.013,4.653,5.013,8.11v19.521c-9.875,5.545-16.566,16.115-16.566,28.223v16.566c0,13.404,6.527,25.308,16.566,32.714
	v11.867c0,0.299-0.166,0.567-0.434,0.701l-19.396,9.698c-8.206,4.103-13.304,12.351-13.304,21.525v81.637
	c0,6.408,1.879,12.614,5.434,17.945l8.219,12.329c1.907,2.861,2.915,6.189,2.915,9.625v33.893c0,4.142,3.357,7.5,7.5,7.5
	s7.5-3.358,7.5-7.5V429.19c0-6.406-1.879-12.611-5.434-17.944l-8.22-12.33c-1.906-2.859-2.914-6.187-2.914-9.624v-81.637
	c0-3.456,1.921-6.563,5.013-8.109l13.618-6.809l12.409,12.409c3.077,3.077,7.118,4.615,11.16,4.615s8.084-1.539,11.16-4.615
	l12.409-12.409l13.618,6.809c3.092,1.546,5.013,4.653,5.013,8.109v81.637c0,3.437-1.008,6.765-2.914,9.625l-8.221,12.33
	c-3.554,5.332-5.432,11.537-5.432,17.944v33.893c0,4.142,3.357,7.5,7.5,7.5s7.5-3.358,7.5-7.5V429.19
	c0-3.437,1.008-6.765,2.913-9.624l8.22-12.329c3.555-5.332,5.434-11.537,5.434-17.945v-81.637c0-9.174-5.098-17.422-13.304-21.525
	l-19.396-9.698c-0.269-0.134-0.435-0.403-0.435-0.702v-11.867c10.04-7.405,16.567-19.31,16.567-32.714v-16.566
	c0-12.109-6.692-22.679-16.567-28.224v-19.521c0-3.457,1.921-6.564,5.013-8.11l13.618-6.809l12.41,12.41
	c3.077,3.076,7.118,4.614,11.16,4.614c4.041,0,8.084-1.539,11.161-4.615l12.409-12.409l13.618,6.809
	c3.091,1.545,5.012,4.653,5.012,8.109v19.521c-9.875,5.545-16.566,16.115-16.566,28.223v16.566c0,13.404,6.527,25.308,16.566,32.714
	v11.867c0,0.299-0.166,0.567-0.434,0.701l-19.396,9.698c-8.206,4.103-13.304,12.351-13.304,21.525v81.637
	c0,6.408,1.879,12.614,5.434,17.945l8.22,12.33c1.906,2.859,2.914,6.187,2.914,9.624v33.893c0,4.142,3.357,7.5,7.5,7.5
	s7.5-3.358,7.5-7.5V429.19c0-6.408-1.879-12.613-5.434-17.944l-8.22-12.33c-1.906-2.859-2.914-6.187-2.914-9.624v-81.637
	c0-3.456,1.921-6.563,5.013-8.109l13.618-6.809l12.409,12.409c3.077,3.077,7.118,4.615,11.16,4.615s8.084-1.539,11.16-4.615
	l12.409-12.409l13.619,6.809c3.091,1.545,5.012,4.652,5.012,8.109v81.637c0,3.437-1.008,6.765-2.914,9.625l-8.221,12.33
	c-3.554,5.332-5.432,11.537-5.432,17.944v33.893c0,4.142,3.357,7.5,7.5,7.5s7.5-3.358,7.5-7.5V429.19
	c0-3.437,1.008-6.765,2.913-9.624l8.22-12.329c3.555-5.332,5.434-11.537,5.434-17.945v-81.637
	C512,298.48,506.902,290.232,498.696,286.13z M66.267,271.783v3.947c0,2.918,0.792,5.689,2.216,8.081L57.754,294.54
	c-0.305,0.306-0.801,0.306-1.108,0l-10.728-10.728c1.424-2.391,2.216-5.163,2.216-8.081v-3.947h18.133V271.783z M82.833,231.15
	c0,14.134-11.499,25.633-25.633,25.633s-25.633-11.499-25.633-25.633v-16.566c0-9.567,7.783-17.35,17.35-17.35h16.567
	c9.567,0,17.35,7.783,17.35,17.35L82.833,231.15L82.833,231.15z M97.833,73.767c0-9.567,7.783-17.35,17.35-17.35h16.567
	c9.567,0,17.35,7.783,17.35,17.35v16.567c0,14.134-11.499,25.633-25.633,25.633s-25.633-11.499-25.633-25.633V73.767H97.833z
	 M124.021,153.723c-0.306,0.306-0.803,0.305-1.108,0l-10.728-10.729c1.424-2.391,2.216-5.163,2.216-8.081v-3.947h18.133v3.947
	c0,2.918,0.792,5.689,2.216,8.08L124.021,153.723z M198.8,271.783v3.947c0,2.918,0.792,5.689,2.216,8.081l-10.729,10.728
	c-0.305,0.306-0.801,0.306-1.108,0l-10.728-10.728c1.424-2.391,2.216-5.163,2.216-8.081v-3.947H198.8z M215.367,231.15
	c0,14.134-11.499,25.633-25.633,25.633S164.1,245.284,164.1,231.15v-16.566c0-9.567,7.783-17.35,17.35-17.35h16.566
	c9.567,0,17.35,7.783,17.35,17.35L215.367,231.15L215.367,231.15z M230.367,73.767c0-9.567,7.783-17.35,17.35-17.35h16.566
	c9.567,0,17.351,7.783,17.351,17.35v16.567c0,14.134-11.499,25.633-25.634,25.633c-14.134,0-25.633-11.499-25.633-25.633
	L230.367,73.767L230.367,73.767z M256.555,153.722c-0.306,0.306-0.804,0.306-1.109,0.001l-10.728-10.729
	c1.424-2.391,2.216-5.163,2.216-8.081v-3.947h18.133v3.947c0,2.918,0.792,5.689,2.215,8.08L256.555,153.722z M331.333,271.783v3.947
	c0,2.918,0.792,5.69,2.216,8.081l-10.728,10.727c-0.308,0.306-0.805,0.305-1.108,0l-10.728-10.729
	c1.423-2.391,2.215-5.163,2.215-8.081v-3.947h18.133V271.783z M347.9,231.15c0,14.134-11.499,25.633-25.634,25.633
	c-14.134,0-25.633-11.499-25.633-25.633v-16.566c0-9.567,7.783-17.35,17.35-17.35h16.566c9.567,0,17.351,7.783,17.351,17.35
	L347.9,231.15L347.9,231.15z M362.9,73.767c0-9.567,7.783-17.35,17.35-17.35h16.566c9.567,0,17.351,7.783,17.351,17.35v16.567
	c0,14.134-11.499,25.633-25.634,25.633c-14.134,0-25.633-11.499-25.633-25.633L362.9,73.767L362.9,73.767z M389.088,153.722
	c-0.308,0.307-0.805,0.305-1.108,0.001l-10.728-10.729c1.423-2.391,2.215-5.163,2.215-8.08v-3.947H397.6v3.947
	c0,2.917,0.792,5.689,2.216,8.08L389.088,153.722z M429.167,214.583c0-9.567,7.783-17.35,17.35-17.35h16.566
	c9.567,0,17.351,7.783,17.351,17.35v16.566c0,14.134-11.499,25.633-25.634,25.633c-14.134,0-25.633-11.499-25.633-25.633
	L429.167,214.583L429.167,214.583z M455.354,294.539c-0.308,0.306-0.805,0.305-1.108,0l-10.728-10.729
	c1.423-2.391,2.215-5.163,2.215-8.081v-3.947h18.133v3.947c0,2.918,0.792,5.69,2.216,8.081L455.354,294.539z"/>
<g>
</g>
<g>
</g>
<g>
</g>
<g>
</g>
<g>
</g>
<g>
</g>
<g>
</g>
<g>
</g>
<g>
</g>
<g>
</g>
<g>
</g>
<g>
</g>
<g>
</g>
<g>
</g>
<g>
</g>
</svg>
