<svg xmlns="http://www.w3.org/2000/svg" style="display: none;"><symbol id="analytics" viewBox="0 0 504.123 504.123"><title>analytics</title><path id="SVGCleanerId_0" style="fill:#E0E4E8;" d="M163.84,7.877v369.428h291.446c22.843,0,40.96-18.117,40.96-40.96V7.877H163.84z "/><path id="SVGCleanerId_1" style="fill:#183651;" d="M455.286,385.182H163.84c-4.726,0-7.877-3.151-7.877-7.877V7.877 c0-4.726,3.151-7.877,7.877-7.877h332.406c4.726,0,7.877,3.151,7.877,7.877v327.68C504.123,363.126,482.068,385.182,455.286,385.182 z M171.717,369.428h283.569c18.117,0,33.083-14.966,33.083-33.083V15.754H171.717V369.428z"/><path id="SVGCleanerId_2" style="fill:#FFFFFF;" d="M195.348,345.797V39.385h269.391v296.172c0,5.514-3.938,9.452-9.452,9.452 H195.348V345.797z"/><path id="SVGCleanerId_3" style="fill:#FFFFFF;" d="M372.578,84.283L372.578,84.283c-22.843,0-40.96,18.117-40.96,40.96v251.274 h81.92V126.031C413.538,103.188,395.422,84.283,372.578,84.283z"/><path id="SVGCleanerId_4" style="fill:#E0E4E8;" d="M455.286,377.305H331.618V126.031c0-22.843,18.117-40.96,40.96-40.96l0,0 c22.843,0,40.96,18.117,40.96,40.96v210.314C413.538,358.4,432.443,377.305,455.286,377.305z"/><path id="SVGCleanerId_5" style="fill:#183651;" d="M455.286,385.182L455.286,385.182H331.618c-4.726,0-7.877-3.151-7.877-7.877 V126.031c0-26.782,22.055-48.837,48.837-48.837s48.837,22.055,48.837,48.837v210.314c0,18.117,14.966,33.083,33.083,33.083l0,0l0,0 c4.726,0,7.877,3.151,7.877,7.877C463.163,381.243,459.225,385.182,455.286,385.182z M339.495,369.428h79.557 c-7.877-8.665-13.391-20.48-13.391-33.083V126.031c0-18.117-14.966-33.083-33.083-33.083s-33.083,14.966-33.083,33.083 L339.495,369.428L339.495,369.428z"/><path id="SVGCleanerId_6" style="fill:#2EA0DA;" d="M372.578,84.283c-22.843,0-40.96,18.117-40.96,40.96v370.215H7.877V125.243 c0-22.843,18.117-40.96,40.96-40.96L372.578,84.283L372.578,84.283z"/><path id="SVGCleanerId_7" style="fill:#183651;" d="M331.618,504.123H7.877c-4.726,0-7.877-3.151-7.877-7.877V126.031 c0-26.782,22.055-48.837,48.837-48.837h323.742c4.726,0,7.877,3.151,7.877,7.877s-3.151,7.877-7.877,7.877 c-18.117,0-33.083,14.966-33.083,33.083v370.215C339.495,500.972,335.557,504.123,331.618,504.123z M15.754,488.369h307.988V126.031 c0-12.603,4.726-24.418,13.391-33.083H48.837c-18.117,0-33.083,14.966-33.083,33.083V488.369z"/><path id="SVGCleanerId_8" style="fill:#FFFFFF;" d="M39.385,464.738V126.031c0-5.514,4.726-9.452,9.452-9.452h251.274 c-0.788,3.151-0.788,6.302-0.788,9.452v338.708H39.385z"/><rect id="SVGCleanerId_9" x="74.831" y="142.572" style="fill:#183651;" width="177.231" height="15.754"/><rect id="SVGCleanerId_10" x="74.831" y="176.443" style="fill:#183651;" width="177.231" height="15.754"/><rect id="SVGCleanerId_11" x="74.831" y="211.102" style="fill:#183651;" width="177.231" height="15.754"/><rect id="SVGCleanerId_12" x="74.831" y="245.76" style="fill:#183651;" width="15.754" height="15.754"/><rect id="SVGCleanerId_13" x="114.215" y="245.76" style="fill:#183651;" width="15.754" height="15.754"/><rect id="SVGCleanerId_14" x="153.6" y="245.76" style="fill:#183651;" width="15.754" height="15.754"/><rect id="SVGCleanerId_15" x="192.985" y="245.76" style="fill:#183651;" width="15.754" height="15.754"/><rect id="SVGCleanerId_16" x="232.369" y="245.76" style="fill:#183651;" width="15.754" height="15.754"/><rect id="SVGCleanerId_17" x="174.08" y="337.92" style="fill:#4FBF9F;" width="25.206" height="113.428"/><rect id="SVGCleanerId_18" x="123.668" y="359.975" style="fill:#FBBD5E;" width="25.206" height="92.16"/><rect id="SVGCleanerId_19" x="73.255" y="381.243" style="fill:#E0E4E8;" width="25.206" height="70.892"/><rect id="SVGCleanerId_20" x="225.28" y="318.228" style="fill:#F06151;" width="25.206" height="133.908"/><g> <path id="SVGCleanerId_0_1_" style="fill:#E0E4E8;" d="M163.84,7.877v369.428h291.446c22.843,0,40.96-18.117,40.96-40.96V7.877 H163.84z"/> </g><g> <path id="SVGCleanerId_1_1_" style="fill:#183651;" d="M455.286,385.182H163.84c-4.726,0-7.877-3.151-7.877-7.877V7.877 c0-4.726,3.151-7.877,7.877-7.877h332.406c4.726,0,7.877,3.151,7.877,7.877v327.68 C504.123,363.126,482.068,385.182,455.286,385.182z M171.717,369.428h283.569c18.117,0,33.083-14.966,33.083-33.083V15.754H171.717 V369.428z"/> </g><g> <path id="SVGCleanerId_2_1_" style="fill:#FFFFFF;" d="M195.348,345.797V39.385h269.391v296.172c0,5.514-3.938,9.452-9.452,9.452 H195.348V345.797z"/> </g><g> <path id="SVGCleanerId_3_1_" style="fill:#FFFFFF;" d="M372.578,84.283L372.578,84.283c-22.843,0-40.96,18.117-40.96,40.96v251.274 h81.92V126.031C413.538,103.188,395.422,84.283,372.578,84.283z"/> </g><g> <path id="SVGCleanerId_4_1_" style="fill:#E0E4E8;" d="M455.286,377.305H331.618V126.031c0-22.843,18.117-40.96,40.96-40.96l0,0 c22.843,0,40.96,18.117,40.96,40.96v210.314C413.538,358.4,432.443,377.305,455.286,377.305z"/> </g><g> <path id="SVGCleanerId_5_1_" style="fill:#183651;" d="M455.286,385.182L455.286,385.182H331.618c-4.726,0-7.877-3.151-7.877-7.877 V126.031c0-26.782,22.055-48.837,48.837-48.837s48.837,22.055,48.837,48.837v210.314c0,18.117,14.966,33.083,33.083,33.083l0,0l0,0 c4.726,0,7.877,3.151,7.877,7.877C463.163,381.243,459.225,385.182,455.286,385.182z M339.495,369.428h79.557 c-7.877-8.665-13.391-20.48-13.391-33.083V126.031c0-18.117-14.966-33.083-33.083-33.083s-33.083,14.966-33.083,33.083 L339.495,369.428L339.495,369.428z"/> </g><g> <path id="SVGCleanerId_6_1_" style="fill:#2EA0DA;" d="M372.578,84.283c-22.843,0-40.96,18.117-40.96,40.96v370.215H7.877V125.243 c0-22.843,18.117-40.96,40.96-40.96L372.578,84.283L372.578,84.283z"/> </g><g> <path id="SVGCleanerId_7_1_" style="fill:#183651;" d="M331.618,504.123H7.877c-4.726,0-7.877-3.151-7.877-7.877V126.031 c0-26.782,22.055-48.837,48.837-48.837h323.742c4.726,0,7.877,3.151,7.877,7.877s-3.151,7.877-7.877,7.877 c-18.117,0-33.083,14.966-33.083,33.083v370.215C339.495,500.972,335.557,504.123,331.618,504.123z M15.754,488.369h307.988 V126.031c0-12.603,4.726-24.418,13.391-33.083H48.837c-18.117,0-33.083,14.966-33.083,33.083V488.369z"/> </g><g> <path id="SVGCleanerId_8_1_" style="fill:#FFFFFF;" d="M39.385,464.738V126.031c0-5.514,4.726-9.452,9.452-9.452h251.274 c-0.788,3.151-0.788,6.302-0.788,9.452v338.708H39.385z"/> </g><g> <rect id="SVGCleanerId_9_1_" x="74.831" y="142.572" style="fill:#183651;" width="177.231" height="15.754"/> </g><g> <rect id="SVGCleanerId_10_1_" x="74.831" y="176.443" style="fill:#183651;" width="177.231" height="15.754"/> </g><g> <rect id="SVGCleanerId_11_1_" x="74.831" y="211.102" style="fill:#183651;" width="177.231" height="15.754"/> </g><g> <rect id="SVGCleanerId_12_1_" x="74.831" y="245.76" style="fill:#183651;" width="15.754" height="15.754"/> </g><g> <rect id="SVGCleanerId_13_1_" x="114.215" y="245.76" style="fill:#183651;" width="15.754" height="15.754"/> </g><g> <rect id="SVGCleanerId_14_1_" x="153.6" y="245.76" style="fill:#183651;" width="15.754" height="15.754"/> </g><g> <rect id="SVGCleanerId_15_1_" x="192.985" y="245.76" style="fill:#183651;" width="15.754" height="15.754"/> </g><g> <rect id="SVGCleanerId_16_1_" x="232.369" y="245.76" style="fill:#183651;" width="15.754" height="15.754"/> </g><g> <rect id="SVGCleanerId_17_1_" x="174.08" y="337.92" style="fill:#4FBF9F;" width="25.206" height="113.428"/> </g><g> <rect id="SVGCleanerId_18_1_" x="123.668" y="359.975" style="fill:#FBBD5E;" width="25.206" height="92.16"/> </g><g> <rect id="SVGCleanerId_19_1_" x="73.255" y="381.243" style="fill:#E0E4E8;" width="25.206" height="70.892"/> </g><g> <rect id="SVGCleanerId_20_1_" x="225.28" y="318.228" style="fill:#F06151;" width="25.206" height="133.908"/> </g></symbol><symbol id="money" viewBox="0 0 504.123 504.123"><title>money</title><circle style="fill:#E0E4E8;" cx="252.062" cy="252.062" r="252.062"/><path style="fill:#FBBD5E;" d="M358.4,282.782L358.4,282.782c-75.618,0-137.846-61.44-137.846-137.846l0,0 c0-75.618,61.44-137.846,137.846-137.846l0,0c75.618,0,137.846,61.44,137.846,137.846l0,0 C496.246,221.342,434.806,282.782,358.4,282.782z"/><path style="fill:#183651;" d="M358.4,290.658c-80.345,0-145.723-65.378-145.723-145.723C213.465,65.378,278.843,0,358.4,0 c80.345,0,145.723,65.378,145.723,145.723C504.123,225.28,438.745,290.658,358.4,290.658z M358.4,15.754 c-70.892,0-129.182,58.289-129.182,129.969S287.508,274.905,358.4,274.905s129.969-58.289,129.969-129.182 S430.08,15.754,358.4,15.754z"/><path style="fill:#FFFFFF;" d="M358.4,251.274c-58.289,0-106.338-47.262-106.338-106.338S300.111,39.385,358.4,39.385 s106.338,47.262,106.338,106.338S417.477,251.274,358.4,251.274z"/><g> <path style="fill:#183651;" d="M356.037,196.923v-9.452c-11.028-0.788-21.268-5.514-30.72-13.391l9.452-11.028 c7.089,6.302,14.178,9.452,21.268,11.028v-24.418c-9.452-2.363-16.542-5.514-20.48-8.665c-4.726-3.938-6.302-8.665-6.302-16.542 c0-7.089,2.363-13.391,7.877-17.329c4.726-4.726,11.815-7.089,19.692-7.089v-6.302h7.877v6.302 c9.452,0.788,18.117,3.938,25.994,9.452l-7.877,11.815c-5.514-3.938-11.028-6.302-18.117-7.089v23.631l0,0 c9.452,2.363,16.542,5.514,21.268,9.452c4.726,3.938,7.089,9.452,7.089,16.542c0,7.089-2.363,13.391-7.877,17.329 c-5.514,4.726-11.815,7.089-20.48,7.089v8.665H356.037z M347.372,116.578c-2.363,1.575-3.151,3.938-3.151,7.089 c0,3.151,0.788,4.726,2.363,6.302c1.575,1.575,4.726,3.151,9.452,4.726v-21.268C352.098,113.428,348.948,115.003,347.372,116.578z M373.366,170.929c2.363-1.575,3.151-3.938,3.151-7.089c0-3.151-0.788-5.514-2.363-7.089c-1.575-1.575-5.514-3.151-10.24-4.726 v22.055C367.852,174.08,371.003,173.292,373.366,170.929z"/> <rect x="22.055" y="230.794" style="fill:#183651;" width="15.754" height="7.877"/> <path style="fill:#183651;" d="M37.809,215.04H22.055v-15.754h15.754V215.04z M37.809,183.532H22.055v-15.754h15.754V183.532z M37.809,152.812H22.055v-15.754h15.754V152.812z M37.809,121.305l-15.754-0.788c0-5.514,0.788-11.815,2.363-17.329l14.966,3.938 C38.597,112.64,37.809,116.578,37.809,121.305z M44.898,95.311L30.72,87.434c3.151-4.726,6.302-10.24,10.24-14.178l11.815,11.028 C49.625,87.434,47.262,91.372,44.898,95.311z M63.015,74.831l-8.665-12.603c4.726-3.151,10.24-6.302,15.754-7.877l5.514,14.966 C70.892,70.105,66.954,72.468,63.015,74.831z M89.009,65.378l-1.575-15.754c3.151,0,5.514-0.788,8.665-0.788h7.877v15.754h-7.877 C92.948,65.378,90.585,65.378,89.009,65.378z M228.431,65.378h-15.754V49.625h15.754V65.378z M196.923,65.378h-15.754V49.625 h15.754V65.378z M166.203,65.378h-15.754V49.625h15.754V65.378z M134.695,65.378h-15.754V49.625h15.754V65.378z"/> <rect x="244.185" y="49.625" style="fill:#183651;" width="7.877" height="15.754"/> <path style="fill:#183651;" d="M420.628,482.068h-15.754v-15.754h15.754V482.068z M389.12,482.068h-15.754v-15.754h15.754V482.068z M437.957,481.28l-3.151-15.754c3.938-0.788,8.665-2.363,12.603-4.726l7.877,13.391 C449.772,477.342,444.258,479.705,437.957,481.28z M469.465,462.375l-11.815-10.24c3.151-3.151,5.514-7.089,7.089-11.028 l14.966,6.302C476.554,452.923,473.403,457.649,469.465,462.375z M482.855,429.292l-15.754-0.788c0-0.788,0-1.575,0-2.363v-12.603 h15.754v12.603C482.855,426.929,482.855,428.505,482.855,429.292z M482.855,396.997h-15.754v-15.754h15.754V396.997z M482.855,365.489h-15.754v-15.754h15.754V365.489z M482.855,333.982h-15.754v-15.754h15.754V333.982z M482.855,302.474h-15.754 V286.72h15.754V302.474z M482.855,270.966h-15.754v-15.754h15.754V270.966z M482.855,239.458h-15.754v-15.754h15.754V239.458z"/> </g><path style="fill:#F06151;" d="M352.098,238.671H29.932c-11.815,0-22.055,9.452-22.055,22.055v214.252 c0,11.815,9.452,22.055,22.055,22.055h322.166c11.815,0,22.055-9.452,22.055-22.055V260.726 C373.366,248.123,363.914,238.671,352.098,238.671z"/><path style="fill:#183651;" d="M352.098,504.123H29.932C13.391,504.123,0,490.732,0,474.191V260.726 c0-16.542,13.391-29.932,29.932-29.932h322.166c16.542,0,29.932,13.391,29.932,29.932v214.252 C381.243,490.732,368.64,504.123,352.098,504.123z M29.932,246.548c-7.877,0-14.178,6.302-14.178,14.178v214.252 c0,7.877,6.302,14.178,14.178,14.178h322.166c7.877,0,14.178-6.302,14.178-14.178V260.726c0-7.877-6.302-14.178-14.178-14.178 H29.932z"/><rect x="39.385" y="270.178" style="fill:#FFFFFF;" width="302.474" height="194.56"/><path style="fill:#183651;" d="M257.575,246.548c-4.726,0-7.877-3.151-7.877-7.877V204.8c0-5.514-4.726-9.452-9.452-9.452h-98.462 c-5.514,0-9.452,4.726-9.452,9.452v33.871c0,4.726-3.151,7.877-7.877,7.877c-4.726,0-7.877-3.151-7.877-7.877V204.8 c0-14.178,11.815-25.206,25.206-25.206h97.674c14.178,0,25.206,11.815,25.206,25.206v33.871 C265.452,242.609,261.514,246.548,257.575,246.548z"/><path style="fill:#183651;" d="M373.366,374.942H7.877c-4.726,0-7.877-3.151-7.877-7.877s3.151-7.877,7.877-7.877h365.489 c4.726,0,7.877,3.151,7.877,7.877S378.092,374.942,373.366,374.942z"/><rect x="152.812" y="337.92" style="fill:#FFFFFF;" width="75.618" height="58.289"/><path style="fill:#183651;" d="M228.431,404.874h-75.618c-4.726,0-7.877-3.151-7.877-7.877v-58.289c0-4.726,3.151-7.877,7.877-7.877 h75.618c4.726,0,7.877,3.151,7.877,7.877v58.289C236.308,400.935,233.157,404.874,228.431,404.874z M160.689,389.12h59.865v-42.535 h-59.865V389.12z"/></symbol><symbol id="conference" viewBox="0 0 504.911 504.911"><title>conference</title><rect x="119.729" y="8.271" style="fill:#E1E6E7;" width="376.517" height="262.302"/><path style="fill:#183651;" d="M496.246,278.449H119.729c-4.726,0-7.877-3.151-7.877-7.877V8.271c0-4.726,3.151-7.877,7.877-7.877 h376.517c4.726,0,7.877,3.151,7.877,7.877v262.302C504.123,275.298,500.972,278.449,496.246,278.449z M127.606,262.695h360.763 V16.148H127.606V262.695z"/><rect x="151.237" y="39.778" style="fill:#FFFFFF;" width="313.502" height="199.286"/><path style="fill:#2CA0DA;" d="M482.068,434.412l-47.262-25.994l-47.262,25.994c-8.665,4.726-14.178,14.178-14.178,24.418v37.809 h122.092v-37.809C496.246,448.591,490.732,439.138,482.068,434.412z"/><path style="fill:#183651;" d="M496.246,503.729H374.154c-4.726,0-7.877-3.151-7.877-7.877v-37.809 c0-12.603,7.089-25.206,18.117-30.72l47.262-25.994c2.363-1.575,5.514-1.575,7.877,0l47.262,25.994 c11.028,6.302,18.117,18.117,18.117,30.72v37.809C504.123,500.578,500.972,503.729,496.246,503.729z M382.031,487.975h106.338 v-29.932c0-7.089-3.938-13.391-10.24-17.329l-43.323-23.631l-43.323,23.631c-6.302,3.151-10.24,10.24-10.24,17.329v29.932H382.031z"/><path style="fill:#FFFFFF;" d="M465.526,381.637c0,20.48-13.391,44.111-30.72,44.111c-17.329,0-30.72-23.631-30.72-44.111 s13.391-31.508,30.72-31.508C452.135,350.129,465.526,360.369,465.526,381.637z"/><path style="fill:#183651;" d="M435.594,433.625c-22.055,0-38.597-27.569-38.597-51.988c0-23.631,15.754-39.385,38.597-39.385 s38.597,15.754,38.597,39.385C473.403,406.055,457.649,433.625,435.594,433.625z M435.594,358.006 c-14.178,0-22.843,8.665-22.843,23.631c0,17.329,11.815,36.234,22.843,36.234s22.843-18.905,22.843-36.234 C457.649,366.671,449.772,358.006,435.594,358.006z"/><path style="fill:#F06151;" d="M359.975,434.412l-47.262-25.994l-47.262,25.994c-8.665,4.726-14.178,14.178-14.178,24.418v37.809 h122.88v-37.809C374.154,448.591,368.64,439.138,359.975,434.412z"/><path style="fill:#183651;" d="M374.154,503.729H252.062c-4.726,0-7.877-3.151-7.877-7.877v-37.809 c0-12.603,7.089-25.206,18.117-30.72l47.262-25.994c2.363-1.575,5.514-1.575,7.877,0l47.262,25.994 c11.028,6.302,18.117,18.117,18.117,30.72v37.809C382.031,500.578,378.88,503.729,374.154,503.729z M259.938,487.975h106.338 v-29.932c0-7.089-3.938-13.391-10.24-17.329l-43.323-23.631l-43.323,23.631c-6.302,3.151-10.24,10.24-10.24,17.329v29.932H259.938z"/><path style="fill:#FFFFFF;" d="M343.434,381.637c0,20.48-13.391,44.111-30.72,44.111c-17.329,0-30.72-23.631-30.72-44.111 s13.391-31.508,30.72-31.508C330.043,350.129,343.434,360.369,343.434,381.637z"/><path style="fill:#183651;" d="M313.502,433.625c-22.055,0-38.597-27.569-38.597-51.988c0-23.631,15.754-39.385,38.597-39.385 c22.843,0,38.597,15.754,38.597,39.385C351.311,406.055,335.557,433.625,313.502,433.625z M313.502,358.006 c-14.178,0-22.843,8.665-22.843,23.631c0,17.329,11.815,36.234,22.843,36.234s22.843-18.905,22.843-36.234 C335.557,366.671,327.68,358.006,313.502,358.006z"/><path style="fill:#4FBF9F;" d="M215.828,419.446v77.194H7.877v-77.194c0-25.994,20.48-47.262,46.474-48.837 c13.391,20.48,33.871,33.871,57.502,33.871s44.111-12.603,57.502-33.871C195.348,372.185,215.828,392.665,215.828,419.446z"/><path style="fill:#183651;" d="M215.828,504.517H7.877c-4.726,0-7.877-3.151-7.877-7.877v-77.194 c0-29.932,23.631-55.138,53.563-56.714c3.151,0,5.514,1.575,7.089,3.938c12.603,18.905,31.508,29.932,51.2,29.932 s38.597-11.028,51.2-29.932c1.575-2.363,3.938-3.938,7.089-3.938c29.932,1.575,53.563,26.782,53.563,56.714v77.194 C223.705,501.366,219.766,504.517,215.828,504.517z M15.754,488.763h192.197v-69.317c0-20.48-14.966-37.022-34.658-40.172 c-15.754,21.268-37.809,33.083-61.44,33.083s-46.474-11.815-61.44-33.083c-19.692,3.151-34.658,19.692-34.658,40.172 C15.754,419.446,15.754,488.763,15.754,488.763z"/><path style="fill:#FFFFFF;" d="M31.508,473.009v-53.563c0-9.452,5.514-18.117,13.391-22.055 c18.117,19.692,41.748,30.72,66.954,30.72s48.837-11.028,66.954-30.72c7.877,3.938,13.391,12.603,13.391,22.055v53.563H31.508z"/><ellipse style="fill:#FBBD5E;" cx="111.852" cy="303.655" rx="49.625" ry="68.529"/><path style="fill:#183651;" d="M111.852,379.274c-31.508,0-57.502-33.871-57.502-76.406s25.994-76.406,57.502-76.406 s57.502,34.658,57.502,77.194S143.36,379.274,111.852,379.274z M111.852,243.003c-22.843,0-41.748,26.782-41.748,60.652 c0,33.083,18.905,60.652,41.748,60.652s41.748-27.569,41.748-60.652C153.6,269.785,134.695,243.003,111.852,243.003z"/><path style="fill:#FFFFFF;" d="M166.203,255.606c-1.575-12.603-11.028-21.268-22.055-26.782c-20.48-10.24-44.898-10.24-64.591,0 c-11.028,5.514-20.48,14.178-22.055,26.782c0,0-15.754,11.028,5.514,58.289c0,0-4.726-11.815,10.24-23.631 c0,0-7.089-22.055,12.603-22.055c0,0,16.542,8.665,25.994,7.089c9.452,1.575,25.994-7.089,25.994-7.089 c19.692,0,12.603,22.055,12.603,22.055c14.966,11.815,10.24,23.631,10.24,23.631C181.957,266.634,166.203,255.606,166.203,255.606z"/><g> <path style="fill:#183651;" d="M160.689,321.772c-0.788,0-2.363,0-3.151-0.788c-3.938-1.575-5.514-6.302-3.938-10.24 c0-0.788,1.575-7.089-7.877-14.178c-2.363-2.363-3.938-5.514-2.363-8.665c0.788-3.151,1.575-7.877,0-10.24 c-0.788-0.788-1.575-1.575-3.151-1.575c-5.514,2.363-18.117,7.877-27.569,7.089c-9.452,0.788-22.843-4.726-27.569-7.089 c-1.575,0-2.363,0.788-3.151,1.575c-1.575,2.363-0.788,7.089,0,10.24c0.788,3.151,0,6.302-2.363,8.665 c-7.877,6.302-8.665,11.815-7.877,13.391c0.788,0.788,0.788,2.363,0.788,3.151c0,4.726-3.151,7.877-7.877,7.877 c-0.788,0-2.363,0-3.151-0.788c-1.575-0.788-3.151-2.363-3.938-3.938c-18.117-41.748-11.028-59.077-5.514-65.378 c2.363-11.815,11.028-22.843,25.994-29.932c22.055-11.815,50.412-11.815,72.468,0c14.178,7.089,23.631,18.117,25.994,29.932 c5.514,6.302,12.603,23.631-5.514,65.378C166.991,320.197,163.84,321.772,160.689,321.772z M61.44,261.908 c0,0-5.514,6.302,0.788,27.569c0.788-0.788,1.575-1.575,2.363-2.363c-0.788-4.726-0.788-12.603,3.151-18.905 c2.363-3.938,7.877-7.877,17.329-7.877c1.575,0,2.363,0,3.938,0.788c4.726,2.363,15.754,7.089,21.268,6.302 c0.788,0,2.363,0,3.151,0c5.514,0.788,15.754-3.151,21.268-6.302c0.788-0.788,2.363-0.788,3.938-0.788 c9.452,0,14.966,4.726,17.329,7.877c4.726,6.302,3.938,14.178,3.151,18.905c0.788,0.788,1.575,1.575,2.363,2.363 c6.302-22.055,0-28.357,0-28.357c-1.575-1.575-2.363-3.151-3.151-5.514c-0.788-7.877-7.089-14.966-18.117-20.48 c-17.329-9.452-40.172-9.452-57.502,0c-11.028,6.302-16.542,13.391-17.329,21.268C64.591,258.757,63.803,260.332,61.44,261.908 L61.44,261.908z"/> <rect x="60.652" y="439.138" style="fill:#183651;" width="15.754" height="17.329"/> <rect x="103.975" y="439.138" style="fill:#183651;" width="15.754" height="17.329"/> <rect x="147.298" y="439.138" style="fill:#183651;" width="15.754" height="17.329"/> </g><rect x="222.129" y="60.258" style="fill:#183651;" width="171.717" height="15.754"/><rect x="171.717" y="120.123" style="fill:#183651;" width="272.542" height="15.754"/><rect x="171.717" y="158.72" style="fill:#183651;" width="272.542" height="15.754"/><rect x="171.717" y="197.317" style="fill:#183651;" width="272.542" height="15.754"/></symbol><symbol id="app-store" viewBox="0 0 478.165 478.165"><title>app-store</title><path id="App_Store_3_" d="M0,287.651V222.74c0-5.857,4.921-10.779,10.958-10.779h114.62L75.63,298.429H10.958 C4.921,298.429,0,293.628,0,287.651z M81.686,420.381l-36.6,24.984c-4.941,3.347-8.408,1.116-7.73-4.642l4.921-42.517 c0.677-5.957,5.539-8.288,10.699-5.419l28.271,16.258C86.388,411.894,86.608,417.074,81.686,420.381z M90.413,396.513 l-28.271-16.078c-5.16-3.068-6.993-9.643-3.985-14.783l131.177-227.248c2.909-5.28,9.623-6.993,14.803-4.124l28.391,16.118 c5.16,3.028,6.874,9.723,3.985,14.863L105.336,392.648C102.307,397.808,95.693,399.601,90.413,396.513z M190.27,298.429 l49.948-86.468h28.71l40.584,86.468H190.27z M352.925,324.171c-11.456-5.638-67.959-135.321-82.204-169.111 c-14.704-33.87-58.276-123.984-44.19-130.957c10.041-4.981,46.163,65.987,73.299,108.504 c26.996,42.557,83.579,152.335,90.592,164.867c6.933,12.572-6.615,22.932-14.365,26.16 C368.506,326.781,364.222,329.729,352.925,324.171z M389.943,383.881l-16.975-26.757c-3.666-5.618-1.793-12.552,3.865-15.381 l16.238-8.368c5.678-2.889,12.95-0.777,15.979,5.24l13.508,25.741c3.148,5.877,0.976,13.409-4.562,16.676l-11.675,6.953 C401.021,391.273,393.549,389.38,389.943,383.881z M452.842,454.311c-3.686-11.556-30.822-12.173-42.955-29.347 c-12.392-16.975-2.212-25.781,2.032-29.885C461.349,367.405,452.842,454.311,452.842,454.311z M478.165,287.651 c0,6.017-4.782,10.779-10.838,10.779h-57.38c-0.777-3.307-1.753-6.615-3.347-9.802c-1.634-2.73-5.399-9.782-10.639-19.704 c-7.531-14.504-18.589-35.205-30.264-56.902h101.67c6.017-0.06,10.799,4.821,10.799,10.719V287.651z"/></symbol><symbol id="microsoft-windows-logo" viewBox="0 0 478.165 478.165"><title>microsoft-windows-logo</title><path id="Windows_2_" d="M97.605,45.097c30.124-11.954,56.523-18.031,80.75-18.509c12.651,0,24.725,1.395,36.022,4.005 c17.294,4.443,41.381,17.333,50.367,22.613L221.39,200.62c-22.035-14.046-48.653-27.634-84.635-28.072l0,0 c-24.048,0-50.148,5.579-80.451,16.855L97.605,45.097z M165.365,398.799c10.739-36.281,36.54-123.685,44.131-149.825 c-5.479-3.347-11.257-6.834-17.055-9.882c-22.255-11.416-43.911-17.214-64.293-17.214c-2.789,0-5.599,0.139-8.388,0.379 c-26.14,2.132-49.928,8.986-65.309,14.305c-4.025,1.434-8.208,3.048-12.472,4.841L0,386.128 c28.889-10.679,54.351-15.819,77.702-15.819C115.377,370.309,142.832,384.275,165.365,398.799z M420.785,290.893 c-27.235,8.866-53.634,13.209-78.08,13.209c-44.828,0-76.128-14.484-95.952-28.212l-42.258,145.9 c12.592,7.232,54.67,29.786,86.926,29.786c26.12,0,55.168-6.635,89.158-20.262L420.785,290.893z M478.165,93.212 c-27.514,10.699-54.232,16.058-79.893,16.058c-42.855,0-74.295-14.723-94.796-28.969L260.56,228.174 c28.909,18.409,59.83,27.793,92.505,27.793c26.618,0,54.132-6.276,82.025-18.907l-0.259-0.996l1.813-0.418L478.165,93.212z"/></symbol><symbol id="apple-big-logo" viewBox="0 0 478.154 478.154"><title>apple-big-logo</title><path id="Apple_3_" d="M263.728,36.181C280.942,15.939,309.971,0.956,333.819,0c3.148,28.032-8.009,56.045-24.745,76.367 c-16.716,20.163-43.892,35.982-70.709,33.87C234.799,82.703,248.288,54.132,263.728,36.181z M400.045,418.793 c-19.963,29.148-40.505,58.256-73.079,58.754c-31.838,0.578-42.098-18.987-78.539-18.987c-36.46,0-47.896,18.489-78.04,19.565 c-31.32,1.136-55.108-31.4-75.171-60.548c-40.903-59.312-72.143-167.736-30.124-240.856c20.82-36.4,58.077-59.412,98.522-59.97 c30.702-0.638,59.791,20.78,78.658,20.78c18.748,0,54.132-25.701,91.13-21.856c15.52,0.598,59.173,6.236,87.205,47.298 c-2.251,1.434-52.1,30.523-51.562,91.11c0.737,72.362,63.337,96.45,63.974,96.669C432.381,352.427,422.937,385.122,400.045,418.793 z"/></symbol><symbol id="facebook-big-logo" viewBox="0 0 478.165 478.165"><title>facebook-big-logo</title><path id="Facebook_3_" d="M175.706,92.624c0,12.054,0,65.807,0,65.807h-48.235v80.531h48.255v239.202h99.04V238.983h66.505 c0,0,6.176-38.632,9.165-80.77c-8.687,0-75.371,0-75.371,0s0-46.86,0-55.049c0-8.268,10.838-19.366,21.557-19.366 c10.679,0,33.153,0,54.072,0c0-10.938,0-48.833,0-83.798c-27.893,0-59.452,0-73.438,0C173.235,0,175.706,80.631,175.706,92.624z"/></symbol><symbol id="big-youtube-logo" viewBox="0 0 478.165 478.165"><title>big-youtube-logo</title><path id="YouTube_2_" d="M376.893,349.758h-26.16l0.12-15.301c0-6.654,5.479-12.372,12.253-12.372h1.634 c7.013,0,12.612,5.718,12.612,12.372L376.893,349.758z M278.491,317.063c-6.654,0-12.034,4.562-12.034,10.041v74.016 c0,5.379,5.379,10.041,12.034,10.041s12.133-4.662,12.133-10.041v-74.016C290.624,321.625,285.146,317.063,278.491,317.063z M438.298,275.622v140.899c0,33.85-29.188,61.643-65.15,61.643H105.117c-35.962,0-65.25-27.793-65.25-61.643V275.622 c0-33.85,29.308-61.404,65.25-61.404h268.031C409.11,214.218,438.298,241.772,438.298,275.622z M122.988,431.942v-148.49h33.272 v-22.055l-88.6-0.12v21.717h27.674v148.968h27.654V431.942z M222.566,305.627h-27.674v79.156c0,11.675,0.697,17.274,0,19.386 c-2.331,6.077-12.373,12.612-16.337,0.697c-0.697-2.331-0.12-8.408-0.12-19.386v-79.853h-27.674l0.12,78.678 c0,11.914-0.239,21.019,0.12,24.984c0.578,7.232,0.359,15.64,7.013,20.541c12.492,8.866,36.42-1.395,42.377-14.245v16.337h22.175 V305.627L222.566,305.627z M311.166,396.438v-66.186c0-24.984-18.788-40.166-44.37-19.844l0.12-49.032h-27.793v169.629 l22.653-0.458l2.211-10.5C292.956,446.646,311.166,428.436,311.166,396.438z M397.913,387.572l-20.78,0.239 c0,0.697,0,1.634,0,2.809v11.675c0,6.077-5.14,11.217-11.436,11.217h-3.965c-6.296,0-11.317-5.14-11.317-11.217v-1.395v-12.851 v-16.576h47.518v-17.851c0-12.851-0.458-26.16-1.395-33.511c-3.507-23.689-36.659-27.315-53.475-15.301 c-5.379,3.746-9.344,8.746-11.675,15.64c-2.331,6.774-3.507,16.118-3.507,28.012v39.349 C327.981,453.181,407.237,443.836,397.913,387.572z M291.322,173.932c1.514,3.507,3.746,6.296,6.654,8.408 c3.028,2.092,6.894,3.267,11.436,3.267c3.965,0,7.471-1.175,10.619-3.507c3.028-2.212,5.599-5.479,7.83-9.922l-0.697,10.978h30.941 V51.721h-24.287v102.267c0,5.599-4.562,10.041-10.281,10.041c-5.479,0-10.161-4.562-10.161-10.041V51.721h-25.223v88.6 c0,11.217,0.239,18.788,0.458,22.653C288.991,166.7,290.047,170.446,291.322,173.932z M197.821,99.697 c0-12.612,1.056-22.414,3.148-29.527c1.992-7.013,5.838-12.731,11.317-17.035c5.479-4.303,12.373-6.415,20.9-6.415 c7.113,0,13.309,1.514,18.449,4.084c5.021,2.909,8.986,6.415,11.675,10.858c3.028,4.443,4.901,8.986,5.838,13.668 c1.056,4.662,1.514,11.914,1.514,21.358v33.392c0,12.133-0.359,21.139-1.514,26.857c-0.817,5.718-2.809,10.978-5.957,15.879 c-3.028,4.901-7.013,8.527-11.914,10.858c-4.782,2.57-10.38,3.626-16.815,3.626c-7.013,0-12.851-1.056-17.752-3.028 c-5.021-2.092-8.746-5.021-11.436-9.105c-2.69-3.965-4.662-8.986-5.718-14.584c-1.175-5.838-1.753-14.484-1.753-26.04V99.697 H197.821z M221.988,151.877c0,7.471,5.599,13.428,12.253,13.428c6.774,0,12.253-5.957,12.253-13.428V81.945 c0-7.352-5.599-13.428-12.253-13.428c-6.774,0-12.253,6.077-12.253,13.428V151.877z M136.416,187.241h29.188l0.12-100.753 l34.328-86.269h-31.758l-18.33,63.974L131.396,0H99.877l36.54,86.508C136.416,86.508,136.416,187.241,136.416,187.241z"/></symbol><symbol id="social-media" viewBox="0 0 478.165 478.165"><title>social-media</title><path id="Twitter__x28_alt_x29__2_" d="M423.993,220.812c26.737-2.271,44.948-14.445,52.2-31.021 c-9.763,5.897-39.967,12.432-56.463,6.276c-0.877-3.905-1.773-7.631-2.71-10.938c-12.632-46.482-56.025-83.998-101.371-79.375 c3.706-1.434,7.431-2.969,11.177-4.164c4.822-1.713,34.229-6.535,29.806-16.875c-4.064-9.065-39.947,6.834-46.601,8.946 c8.886-3.307,23.709-8.966,25.223-19.226c-13.628,1.893-27.056,8.228-37.377,17.752c3.726-4.144,6.575-9.045,7.073-14.245 c-36.36,23.151-57.539,70.051-74.753,115.437c-13.528-13.11-25.462-23.39-36.201-29.049 c-30.124-16.258-66.126-33.053-122.749-54.072c-1.654,18.688,9.284,43.613,41.003,60.189c-6.933-0.936-19.386,1.136-29.427,3.487 c4.025,21.478,17.373,39.03,53.515,47.617c-16.556,1.156-25.004,4.881-32.754,12.91c7.511,14.923,25.781,32.535,58.874,28.889 c-36.679,15.859-14.943,45.226,14.923,40.704C126.494,356.69,46.163,352.905,0,308.715 c120.418,164.21,382.034,97.107,421.144-60.946c29.108,0.339,46.342-10.121,57.021-21.537 C461.349,229.08,437.003,226.171,423.993,220.812z"/></symbol><symbol id="letter-g" viewBox="0 0 478.185 478.185"><title>letter-g</title><path id="Google_3_" d="M395.821,0H266.318c-33.83,0-76.506,4.981-112.309,34.428c-27.016,23.291-40.166,55.228-40.166,84.117 c0,48.952,37.675,98.621,104.24,98.621c6.296,0,13.11-0.697,20.103-1.335c-3.128,7.471-6.316,13.767-6.316,24.506 c0,19.366,10.061,31.32,18.848,42.616c-28.212,1.952-80.989,5.061-119.979,28.929c-37.098,21.916-48.374,53.853-48.374,76.586 c0,46.402,44.011,89.716,135.062,89.716c108.005,0,165.166-59.671,165.166-118.704c0-43.254-25.024-64.632-52.658-87.803 l-22.733-17.573c-6.953-5.658-16.258-13.15-16.258-26.957c0-13.907,9.324-22.613,17.592-30.782 c26.279-20.72,52.758-42.696,52.758-89.038c0-47.737-30.204-72.84-44.609-84.755h38.97L395.821,0z M340.533,383.946 c0,38.851-31.977,67.919-92.286,67.919c-67.302,0-110.615-32.097-110.615-76.586c0-44.669,40.246-59.671,54.033-64.692 c26.419-8.826,60.348-9.982,66.007-9.982c6.236,0,9.344,0,14.464,0.578C319.832,334.974,340.533,352.029,340.533,383.946z M290.326,181.922c-10.101,9.962-27.016,17.533-42.836,17.533c-53.973,0-78.439-69.653-78.439-111.691 c0-16.297,3.168-33.213,13.787-46.422c10.061-12.552,27.694-20.681,43.991-20.681c52.04,0,79.136,70.27,79.136,115.437 C305.966,147.414,304.81,167.457,290.326,181.922z"/></symbol><symbol id="link" viewBox="0 0 478.165 478.165"><title>link</title><path id="LinkedIn_3_" d="M478.165,290.794v176.742H375.638V302.549c0-41.481-14.783-69.673-51.881-69.673 c-28.371,0-45.107,19.087-52.578,37.456c-2.69,6.615-3.507,15.879-3.507,25.024v172.159H165.246c0,0,1.375-279.328,0-308.257 h102.447v43.692c-0.139,0.359-0.438,0.657-0.578,1.056h0.578v-1.056c13.687-20.999,37.934-50.925,92.385-50.925 C427.659,152.026,478.165,196.077,478.165,290.794z M57.997,10.629C22.952,10.629,0,33.621,0,63.945 c0,29.507,22.275,53.276,56.682,53.276H57.3c35.822,0,58.017-23.769,58.017-53.276C114.62,33.621,93.123,10.629,57.997,10.629z M6.117,467.535h102.467V159.239H6.117V467.535z"/></symbol><symbol id="menu" viewBox="0 0 53 53"><title>menu</title><path d="M2,13.5h49c1.104,0,2-0.896,2-2s-0.896-2-2-2H2c-1.104,0-2,0.896-2,2S0.896,13.5,2,13.5z"/><path d="M2,28.5h49c1.104,0,2-0.896,2-2s-0.896-2-2-2H2c-1.104,0-2,0.896-2,2S0.896,28.5,2,28.5z"/><path d="M2,43.5h49c1.104,0,2-0.896,2-2s-0.896-2-2-2H2c-1.104,0-2,0.896-2,2S0.896,43.5,2,43.5z"/></symbol></svg>